<?xml version="1.0" encoding="UTF-8" standalone="no"?>
<!-- Created with Inkscape (http://www.inkscape.org/) -->

<svg
   version="1.1"
   id="svg1"
   width="1024"
   height="1024"
   viewBox="0 0 1024 1024"
   xmlns="http://www.w3.org/2000/svg"
   xmlns:svg="http://www.w3.org/2000/svg">
  <defs
     id="defs1" />
  <g
     id="g1">
    <g
       id="g26834"
       transform="translate(1.2579852,-1.2579851)">
      <path
         style="fill:#c9261e"
         d="m 357.74201,782.27395 c 0,-0.275 0.225,-0.5 0.5,-0.5 0.275,0 0.5,0.225 0.5,0.5 0,0.275 -0.225,0.5 -0.5,0.5 -0.275,0 -0.5,-0.225 -0.5,-0.5 z m 3,-2 c 0,-0.275 0.225,-0.5 0.5,-0.5 0.275,0 0.5,0.225 0.5,0.5 0,0.275 -0.225,0.5 -0.5,0.5 -0.275,0 -0.5,-0.225 -0.5,-0.5 z m -4,-1.5 c 0,-0.73333 0.3,-1.03333 0.66667,-0.66666 0.36666,0.36666 0.36666,0.96666 0,1.33333 -0.36667,0.36667 -0.66667,0.0667 -0.66667,-0.66667 z m 7,-0.5 c 0,-0.275 0.225,-0.5 0.5,-0.5 0.275,0 0.5,0.225 0.5,0.5 0,0.275 -0.225,0.5 -0.5,0.5 -0.275,0 -0.5,-0.225 -0.5,-0.5 z m 12,-9 c 0,-0.275 0.225,-0.5 0.5,-0.5 0.275,0 0.5,0.225 0.5,0.5 0,0.275 -0.225,0.5 -0.5,0.5 -0.275,0 -0.5,-0.225 -0.5,-0.5 z m 5,-4 c 0,-0.275 0.225,-0.5 0.5,-0.5 0.275,0 0.5,0.225 0.5,0.5 0,0.275 -0.225,0.5 -0.5,0.5 -0.275,0 -0.5,-0.225 -0.5,-0.5 z m -27,-1 c 0,-0.275 0.225,-0.5 0.5,-0.5 0.275,0 0.5,0.225 0.5,0.5 0,0.275 -0.225,0.5 -0.5,0.5 -0.275,0 -0.5,-0.225 -0.5,-0.5 z m 33,-4 c 0,-0.275 0.225,-0.5 0.5,-0.5 0.275,0 0.5,0.225 0.5,0.5 0,0.275 -0.225,0.5 -0.5,0.5 -0.275,0 -0.5,-0.225 -0.5,-0.5 z m -36,-4 c 0,-0.275 0.225,-0.5 0.5,-0.5 0.275,0 0.5,0.225 0.5,0.5 0,0.275 -0.225,0.5 -0.5,0.5 -0.275,0 -0.5,-0.225 -0.5,-0.5 z m 44,-3 c 0,-0.275 0.225,-0.5 0.5,-0.5 0.275,0 0.5,0.225 0.5,0.5 0,0.275 -0.225,0.5 -0.5,0.5 -0.275,0 -0.5,-0.225 -0.5,-0.5 z m -54,-14 c 0,-0.275 0.225,-0.5 0.5,-0.5 0.275,0 0.5,0.225 0.5,0.5 0,0.275 -0.225,0.5 -0.5,0.5 -0.275,0 -0.5,-0.225 -0.5,-0.5 z m 70,-2 c 0,-0.275 0.225,-0.5 0.5,-0.5 0.275,0 0.5,0.225 0.5,0.5 0,0.275 -0.225,0.5 -0.5,0.5 -0.275,0 -0.5,-0.225 -0.5,-0.5 z m -46.49726,-7.68568 c -2.13039,-8.93366 -8.51591,-25.63231 -12.24984,-32.03429 -6.47759,-11.10612 -23.82616,-28.45162 -46.7529,-46.74464 -11.46661,-9.1491 -22.5,-19.11001 -22.5,-20.31294 0,-0.56783 0.80865,-0.3006 1.797,0.59384 5.14093,4.65248 23.85733,11.34115 39.703,14.18865 4.95,0.88952 9.9,1.86367 11,2.16476 3.44681,0.94348 -7.17553,-9.18216 -19.57715,-18.6617 -16.80479,-12.84523 -20.90169,-17.68354 -24.69803,-29.16761 -1.69823,-5.13721 -3.7921,-13.39039 -4.65306,-18.34039 -1.7737,-10.19776 -2.15017,-27.9755 -0.57176,-27 0.55,0.33992 1,1.98903 1,3.66468 0,4.93325 2.8902,14.80091 6.62261,22.61075 3.99128,8.3515 11.56521,16.62227 21.14617,23.09169 6.23643,4.21107 34.23122,21.12706 34.23122,20.68438 0,-0.12763 -1.32264,-2.89143 -2.93921,-6.14177 -4.47617,-9.00004 -7.06079,-19.64506 -7.06079,-29.08061 0,-4.51609 0.45,-8.4892 1,-8.82912 0.57434,-0.35496 1.0101,0.57764 1.02373,2.19099 0.032,3.78646 3.81614,12.7491 7.9516,18.83318 1.8602,2.73671 11.34963,12.85083 21.08762,22.47583 9.738,9.625 19.50242,19.99365 21.69871,23.04143 11.45311,15.89341 16.5191,34.24154 14.31269,51.83802 -0.9081,7.24222 -4.75133,19.1159 -6.18843,19.11916 -0.33774,7.7e-4 -0.8781,-1.91111 -1.2008,-4.24861 -1.01686,-7.3657 -4.4838,-17.05626 -8.4028,-23.48697 -7.86934,-12.91281 -18.47523,-26.03549 -15.77065,-19.51303 0.39911,0.9625 1.75028,5.59594 3.0026,10.29652 3.00632,11.28417 3.94604,21.98688 2.58699,29.46366 -1.22986,6.76605 -6.68449,18.33843 -10.98438,23.30414 l -2.86992,3.31432 z m -27.50274,4.68568 c 0,-0.275 0.225,-0.5 0.5,-0.5 0.275,0 0.5,0.225 0.5,0.5 0,0.275 -0.225,0.5 -0.5,0.5 -0.275,0 -0.5,-0.225 -0.5,-0.5 z m 79,-3 c 0,-0.275 0.225,-0.5 0.5,-0.5 0.275,0 0.5,0.225 0.5,0.5 0,0.275 -0.225,0.5 -0.5,0.5 -0.275,0 -0.5,-0.225 -0.5,-0.5 z m -90,-8 c 0,-0.275 0.225,-0.5 0.5,-0.5 0.275,0 0.5,0.225 0.5,0.5 0,0.275 -0.225,0.5 -0.5,0.5 -0.275,0 -0.5,-0.225 -0.5,-0.5 z m 98,-3 c 0,-0.275 0.225,-0.5 0.5,-0.5 0.275,0 0.5,0.225 0.5,0.5 0,0.275 -0.225,0.5 -0.5,0.5 -0.275,0 -0.5,-0.225 -0.5,-0.5 z m -104,-2 c 0,-0.275 0.225,-0.5 0.5,-0.5 0.275,0 0.5,0.225 0.5,0.5 0,0.275 -0.225,0.5 -0.5,0.5 -0.275,0 -0.5,-0.225 -0.5,-0.5 z m 107,-3 c 0,-0.275 0.225,-0.5 0.5,-0.5 0.275,0 0.5,0.225 0.5,0.5 0,0.275 -0.225,0.5 -0.5,0.5 -0.275,0 -0.5,-0.225 -0.5,-0.5 z m -114,-2 c 0,-0.275 0.225,-0.5 0.5,-0.5 0.275,0 0.5,0.225 0.5,0.5 0,0.275 -0.225,0.5 -0.5,0.5 -0.275,0 -0.5,-0.225 -0.5,-0.5 z m 118,-5 c 0,-0.275 0.225,-0.5 0.5,-0.5 0.275,0 0.5,0.225 0.5,0.5 0,0.275 -0.225,0.5 -0.5,0.5 -0.275,0 -0.5,-0.225 -0.5,-0.5 z m -130,-2 c 0,-0.275 0.225,-0.5 0.5,-0.5 0.275,0 0.5,0.225 0.5,0.5 0,0.275 -0.225,0.5 -0.5,0.5 -0.275,0 -0.5,-0.225 -0.5,-0.5 z m 131,0 c 0,-0.275 0.225,-0.5 0.5,-0.5 0.275,0 0.5,0.225 0.5,0.5 0,0.275 -0.225,0.5 -0.5,0.5 -0.275,0 -0.5,-0.225 -0.5,-0.5 z m -133,-1 c 0,-0.275 0.225,-0.5 0.5,-0.5 0.275,0 0.5,0.225 0.5,0.5 0,0.275 -0.225,0.5 -0.5,0.5 -0.275,0 -0.5,-0.225 -0.5,-0.5 z m -2,-1 c 0,-0.275 0.225,-0.5 0.5,-0.5 0.275,0 0.5,0.225 0.5,0.5 0,0.275 -0.225,0.5 -0.5,0.5 -0.275,0 -0.5,-0.225 -0.5,-0.5 z m -2,-1 c 0,-0.275 0.225,-0.5 0.5,-0.5 0.275,0 0.5,0.225 0.5,0.5 0,0.275 -0.225,0.5 -0.5,0.5 -0.275,0 -0.5,-0.225 -0.5,-0.5 z m -2,-1 c 0,-0.275 0.225,-0.5 0.5,-0.5 0.275,0 0.5,0.225 0.5,0.5 0,0.275 -0.225,0.5 -0.5,0.5 -0.275,0 -0.5,-0.225 -0.5,-0.5 z m -2,-1 c 0,-0.275 0.225,-0.5 0.5,-0.5 0.275,0 0.5,0.225 0.5,0.5 0,0.275 -0.225,0.5 -0.5,0.5 -0.275,0 -0.5,-0.225 -0.5,-0.5 z m -2,-1 c 0,-0.275 0.225,-0.5 0.5,-0.5 0.275,0 0.5,0.225 0.5,0.5 0,0.275 -0.225,0.5 -0.5,0.5 -0.275,0 -0.5,-0.225 -0.5,-0.5 z m 146,-1 c 0,-0.275 0.225,-0.5 0.5,-0.5 0.275,0 0.5,0.225 0.5,0.5 0,0.275 -0.225,0.5 -0.5,0.5 -0.275,0 -0.5,-0.225 -0.5,-0.5 z m -121.41385,-4.36059 c -0.29253,-0.47333 -4.93159,-3.4715 -10.30901,-6.66259 -46.76862,-27.75361 -64.75709,-47.04856 -75.79148,-81.2961 -2.99338,-9.29055 -2.75898,-11.8477 0.426,-4.64752 4.81157,10.87736 17.14926,24.9027 36.08834,41.02482 15.99824,13.61869 35.02239,31.89749 43.96262,42.24023 4.42056,5.11404 8.03738,9.50154 8.03738,9.75 0,0.79742 -1.86339,0.48181 -2.41385,-0.40884 z m 124.41385,-4.63941 c 0,-0.275 0.225,-0.5 0.5,-0.5 0.275,0 0.5,0.225 0.5,0.5 0,0.275 -0.225,0.5 -0.5,0.5 -0.275,0 -0.5,-0.225 -0.5,-0.5 z m -175,-5 c 0,-0.275 0.225,-0.5 0.5,-0.5 0.275,0 0.5,0.225 0.5,0.5 0,0.275 -0.225,0.5 -0.5,0.5 -0.275,0 -0.5,-0.225 -0.5,-0.5 z m -3,-2 c 0,-0.275 0.225,-0.5 0.5,-0.5 0.275,0 0.5,0.225 0.5,0.5 0,0.275 -0.225,0.5 -0.5,0.5 -0.275,0 -0.5,-0.225 -0.5,-0.5 z m -3,-2 c 0,-0.275 0.225,-0.5 0.5,-0.5 0.275,0 0.5,0.225 0.5,0.5 0,0.275 -0.225,0.5 -0.5,0.5 -0.275,0 -0.5,-0.225 -0.5,-0.5 z m -11,-8 c 0,-0.275 0.225,-0.5 0.5,-0.5 0.275,0 0.5,0.225 0.5,0.5 0,0.275 -0.225,0.5 -0.5,0.5 -0.275,0 -0.5,-0.225 -0.5,-0.5 z m 195.25218,-4 c 0.0111,-2.2 0.21589,-2.98225 0.45508,-1.73834 0.23919,1.24392 0.23011,3.04392 -0.0202,4 -0.25029,0.95609 -0.446,-0.0617 -0.4349,-2.26166 z m -199.25218,1 c 0,-0.275 0.225,-0.5 0.5,-0.5 0.275,0 0.5,0.225 0.5,0.5 0,0.275 -0.225,0.5 -0.5,0.5 -0.275,0 -0.5,-0.225 -0.5,-0.5 z m 418,-2 c 0,-0.275 0.225,-0.5 0.5,-0.5 0.275,0 0.5,0.225 0.5,0.5 0,0.275 -0.225,0.5 -0.5,0.5 -0.275,0 -0.5,-0.225 -0.5,-0.5 z m -108.25,-1.2322 c 2.3375,-0.21054 6.1625,-0.21054 8.5,0 2.3375,0.21053 0.425,0.38279 -4.25,0.38279 -4.675,0 -6.5875,-0.17226 -4.25,-0.38279 z m 56.58333,0.0655 c 0.36667,-0.36667 0.96667,-0.36667 1.33334,0 0.36666,0.36666 0.0667,0.66666 -0.66667,0.66666 -0.73333,0 -1.03333,-0.3 -0.66667,-0.66666 z m 8,0 c 0.36667,-0.36667 0.96667,-0.36667 1.33334,0 0.36666,0.36666 0.0667,0.66666 -0.66667,0.66666 -0.73333,0 -1.03333,-0.3 -0.66667,-0.66666 z m 35.66667,0.16666 c 0,-0.275 0.225,-0.5 0.5,-0.5 0.275,0 0.5,0.225 0.5,0.5 0,0.275 -0.225,0.5 -0.5,0.5 -0.275,0 -0.5,-0.225 -0.5,-0.5 z m 49.26375,-0.21758 c 1.52006,-0.22985 3.77006,-0.22371 5,0.0136 1.22994,0.23736 -0.0137,0.42543 -2.76375,0.41792 -2.75,-0.008 -3.75631,-0.20171 -2.23625,-0.43157 z m 39.73625,0.21758 c 0,-0.275 0.225,-0.5 0.5,-0.5 0.275,0 0.5,0.225 0.5,0.5 0,0.275 -0.225,0.5 -0.5,0.5 -0.275,0 -0.5,-0.225 -0.5,-0.5 z m -92,-1 c 0,-0.275 0.225,-0.5 0.5,-0.5 0.275,0 0.5,0.225 0.5,0.5 0,0.275 -0.225,0.5 -0.5,0.5 -0.275,0 -0.5,-0.225 -0.5,-0.5 z m 21,0 c 0,-0.275 0.225,-0.5 0.5,-0.5 0.275,0 0.5,0.225 0.5,0.5 0,0.275 -0.225,0.5 -0.5,0.5 -0.275,0 -0.5,-0.225 -0.5,-0.5 z m 114,0 c 0,-0.275 0.225,-0.5 0.5,-0.5 0.275,0 0.5,0.225 0.5,0.5 0,0.275 -0.225,0.5 -0.5,0.5 -0.275,0 -0.5,-0.225 -0.5,-0.5 z m -548,-1 c 0,-0.275 0.225,-0.5 0.5,-0.5 0.275,0 0.5,0.225 0.5,0.5 0,0.275 -0.225,0.5 -0.5,0.5 -0.275,0 -0.5,-0.225 -0.5,-0.5 z m 436,0 c 0,-0.275 0.225,-0.5 0.5,-0.5 0.275,0 0.5,0.225 0.5,0.5 0,0.275 -0.225,0.5 -0.5,0.5 -0.275,0 -0.5,-0.225 -0.5,-0.5 z m 102,0 c 0,-0.275 0.225,-0.5 0.5,-0.5 0.275,0 0.5,0.225 0.5,0.5 0,0.275 -0.225,0.5 -0.5,0.5 -0.275,0 -0.5,-0.225 -0.5,-0.5 z m -131,-3 c 0,-0.275 0.225,-0.5 0.5,-0.5 0.275,0 0.5,0.225 0.5,0.5 0,0.275 -0.225,0.5 -0.5,0.5 -0.275,0 -0.5,-0.225 -0.5,-0.5 z m -60,-2 c 0,-0.275 0.225,-0.5 0.5,-0.5 0.275,0 0.5,0.225 0.5,0.5 0,0.275 -0.225,0.5 -0.5,0.5 -0.275,0 -0.5,-0.225 -0.5,-0.5 z m 193,0 c 0,-0.275 0.225,-0.5 0.5,-0.5 0.275,0 0.5,0.225 0.5,0.5 0,0.275 -0.225,0.5 -0.5,0.5 -0.275,0 -0.5,-0.225 -0.5,-0.5 z m -218,-2 c 0,-0.275 0.225,-0.5 0.5,-0.5 0.275,0 0.5,0.225 0.5,0.5 0,0.275 -0.225,0.5 -0.5,0.5 -0.275,0 -0.5,-0.225 -0.5,-0.5 z m 9,0 c 0,-0.275 0.225,-0.5 0.5,-0.5 0.275,0 0.5,0.225 0.5,0.5 0,0.275 -0.225,0.5 -0.5,0.5 -0.275,0 -0.5,-0.225 -0.5,-0.5 z m 88,0 c 0,-0.275 0.225,-0.5 0.5,-0.5 0.275,0 0.5,0.225 0.5,0.5 0,0.275 -0.225,0.5 -0.5,0.5 -0.275,0 -0.5,-0.225 -0.5,-0.5 z m -429.12756,-2.25 c -1.24387,-1.58605 -1.2085,-1.62142 0.37756,-0.37755 1.66575,1.30637 2.19548,2.12755 1.37244,2.12755 -0.20765,0 -0.99515,-0.7875 -1.75,-1.75 z m 214.12756,1.25 c 0,-0.275 0.225,-0.5 0.5,-0.5 0.275,0 0.5,0.225 0.5,0.5 0,0.275 -0.225,0.5 -0.5,0.5 -0.275,0 -0.5,-0.225 -0.5,-0.5 z m 131,0 c 0,-0.275 0.225,-0.5 0.5,-0.5 0.275,0 0.5,0.225 0.5,0.5 0,0.275 -0.225,0.5 -0.5,0.5 -0.275,0 -0.5,-0.225 -0.5,-0.5 z m 244,0 c 0,-0.275 0.225,-0.5 0.5,-0.5 0.275,0 0.5,0.225 0.5,0.5 0,0.275 -0.225,0.5 -0.5,0.5 -0.275,0 -0.5,-0.225 -0.5,-0.5 z m -37,-2 c 0,-0.275 0.225,-0.5 0.5,-0.5 0.275,0 0.5,0.225 0.5,0.5 0,0.275 -0.225,0.5 -0.5,0.5 -0.275,0 -0.5,-0.225 -0.5,-0.5 z m -140,-1 c 0,-0.275 0.225,-0.5 0.5,-0.5 0.275,0 0.5,0.225 0.5,0.5 0,0.275 -0.225,0.5 -0.5,0.5 -0.275,0 -0.5,-0.225 -0.5,-0.5 z m -62,-1 c 0,-0.275 0.225,-0.5 0.5,-0.5 0.275,0 0.5,0.225 0.5,0.5 0,0.275 -0.225,0.5 -0.5,0.5 -0.275,0 -0.5,-0.225 -0.5,-0.5 z m -137,-1 c 0,-0.275 0.225,-0.5 0.5,-0.5 0.275,0 0.5,0.225 0.5,0.5 0,0.275 -0.225,0.5 -0.5,0.5 -0.275,0 -0.5,-0.225 -0.5,-0.5 z m 374,0 c 0,-0.275 0.225,-0.5 0.5,-0.5 0.275,0 0.5,0.225 0.5,0.5 0,0.275 -0.225,0.5 -0.5,0.5 -0.275,0 -0.5,-0.225 -0.5,-0.5 z m -225,-1 c 0,-0.275 0.225,-0.5 0.5,-0.5 0.275,0 0.5,0.225 0.5,0.5 0,0.275 -0.225,0.5 -0.5,0.5 -0.275,0 -0.5,-0.225 -0.5,-0.5 z m 60,0 c 0,-0.275 0.225,-0.5 0.5,-0.5 0.275,0 0.5,0.225 0.5,0.5 0,0.275 -0.225,0.5 -0.5,0.5 -0.275,0 -0.5,-0.225 -0.5,-0.5 z m -429.12756,-2.25 c -1.24387,-1.58605 -1.2085,-1.62142 0.37756,-0.37755 0.9625,0.75484 1.75,1.54234 1.75,1.75 0,0.82303 -0.82119,0.2933 -2.12756,-1.37245 z m 561.12756,1.25 c 0,-0.275 0.225,-0.5 0.5,-0.5 0.275,0 0.5,0.225 0.5,0.5 0,0.275 -0.225,0.5 -0.5,0.5 -0.275,0 -0.5,-0.225 -0.5,-0.5 z m -202,-2 c 0,-0.275 0.225,-0.5 0.5,-0.5 0.275,0 0.5,0.225 0.5,0.5 0,0.275 -0.225,0.5 -0.5,0.5 -0.275,0 -0.5,-0.225 -0.5,-0.5 z m 69,-1 c 0,-0.275 0.225,-0.5 0.5,-0.5 0.275,0 0.5,0.225 0.5,0.5 0,0.275 -0.225,0.5 -0.5,0.5 -0.275,0 -0.5,-0.225 -0.5,-0.5 z m 164,0 c 0,-0.275 0.225,-0.5 0.5,-0.5 0.275,0 0.5,0.225 0.5,0.5 0,0.275 -0.225,0.5 -0.5,0.5 -0.275,0 -0.5,-0.225 -0.5,-0.5 z m -374,-2 c 0,-0.275 0.225,-0.5 0.5,-0.5 0.275,0 0.5,0.225 0.5,0.5 0,0.275 -0.225,0.5 -0.5,0.5 -0.275,0 -0.5,-0.225 -0.5,-0.5 z m 345,0 c 0,-0.275 0.225,-0.5 0.5,-0.5 0.275,0 0.5,0.225 0.5,0.5 0,0.275 -0.225,0.5 -0.5,0.5 -0.275,0 -0.5,-0.225 -0.5,-0.5 z m 10,0 c 0,-0.275 0.225,-0.5 0.5,-0.5 0.275,0 0.5,0.225 0.5,0.5 0,0.275 -0.225,0.5 -0.5,0.5 -0.275,0 -0.5,-0.225 -0.5,-0.5 z m 17,-3 c 0,-0.275 0.225,-0.5 0.5,-0.5 0.275,0 0.5,0.225 0.5,0.5 0,0.275 -0.225,0.5 -0.5,0.5 -0.275,0 -0.5,-0.225 -0.5,-0.5 z m -231,-1 c 0,-0.275 0.225,-0.5 0.5,-0.5 0.275,0 0.5,0.225 0.5,0.5 0,0.275 -0.225,0.5 -0.5,0.5 -0.275,0 -0.5,-0.225 -0.5,-0.5 z m 69,0 c 0,-0.275 0.225,-0.5 0.5,-0.5 0.275,0 0.5,0.225 0.5,0.5 0,0.275 -0.225,0.5 -0.5,0.5 -0.275,0 -0.5,-0.225 -0.5,-0.5 z m 151,0 c 0,-0.275 0.225,-0.5 0.5,-0.5 0.275,0 0.5,0.225 0.5,0.5 0,0.275 -0.225,0.5 -0.5,0.5 -0.275,0 -0.5,-0.225 -0.5,-0.5 z m -14,-1 c 0,-0.275 0.225,-0.5 0.5,-0.5 0.275,0 0.5,0.225 0.5,0.5 0,0.275 -0.225,0.5 -0.5,0.5 -0.275,0 -0.5,-0.225 -0.5,-0.5 z m -574,-1 c 0,-0.275 0.225,-0.5 0.5,-0.5 0.275,0 0.5,0.225 0.5,0.5 0,0.275 -0.225,0.5 -0.5,0.5 -0.275,0 -0.5,-0.225 -0.5,-0.5 z m 427,0 c 0,-0.275 0.225,-0.5 0.5,-0.5 0.275,0 0.5,0.225 0.5,0.5 0,0.275 -0.225,0.5 -0.5,0.5 -0.275,0 -0.5,-0.225 -0.5,-0.5 z m 157,0 c 0,-0.275 0.225,-0.5 0.5,-0.5 0.275,0 0.5,0.225 0.5,0.5 0,0.275 -0.225,0.5 -0.5,0.5 -0.275,0 -0.5,-0.225 -0.5,-0.5 z m -206,-1 c 0,-0.275 0.225,-0.5 0.5,-0.5 0.275,0 0.5,0.225 0.5,0.5 0,0.275 -0.225,0.5 -0.5,0.5 -0.275,0 -0.5,-0.225 -0.5,-0.5 z m -12,-2 c 0,-0.275 0.225,-0.5 0.5,-0.5 0.275,0 0.5,0.225 0.5,0.5 0,0.275 -0.225,0.5 -0.5,0.5 -0.275,0 -0.5,-0.225 -0.5,-0.5 z m 11,-1 c 0,-0.275 0.225,-0.5 0.5,-0.5 0.275,0 0.5,0.225 0.5,0.5 0,0.275 -0.225,0.5 -0.5,0.5 -0.275,0 -0.5,-0.225 -0.5,-0.5 z m 51,0 c 0,-0.275 0.225,-0.5 0.5,-0.5 0.275,0 0.5,0.225 0.5,0.5 0,0.275 -0.225,0.5 -0.5,0.5 -0.275,0 -0.5,-0.225 -0.5,-0.5 z m 148,0 c 0,-0.275 0.225,-0.5 0.5,-0.5 0.275,0 0.5,0.225 0.5,0.5 0,0.275 -0.225,0.5 -0.5,0.5 -0.275,0 -0.5,-0.225 -0.5,-0.5 z m -580,-1 c 0,-0.275 0.225,-0.5 0.5,-0.5 0.275,0 0.5,0.225 0.5,0.5 0,0.275 -0.225,0.5 -0.5,0.5 -0.275,0 -0.5,-0.225 -0.5,-0.5 z m 380,-1 c 0,-0.275 0.225,-0.5 0.5,-0.5 0.275,0 0.5,0.225 0.5,0.5 0,0.275 -0.225,0.5 -0.5,0.5 -0.275,0 -0.5,-0.225 -0.5,-0.5 z m 93,0 c 0,-0.275 0.225,-0.5 0.5,-0.5 0.275,0 0.5,0.225 0.5,0.5 0,0.275 -0.225,0.5 -0.5,0.5 -0.275,0 -0.5,-0.225 -0.5,-0.5 z m -118.23834,-2.20726 c 1.24391,-0.23919 3.04391,-0.23011 4,0.0202 0.95609,0.2503 -0.0617,0.446 -2.26166,0.4349 -2.2,-0.0111 -2.98225,-0.21588 -1.73834,-0.45508 z m 79.23834,0.20726 c 0,-0.275 0.225,-0.5 0.5,-0.5 0.275,0 0.5,0.225 0.5,0.5 0,0.275 -0.225,0.5 -0.5,0.5 -0.275,0 -0.5,-0.225 -0.5,-0.5 z m 38,0 c 0,-0.275 0.225,-0.5 0.5,-0.5 0.275,0 0.5,0.225 0.5,0.5 0,0.275 -0.225,0.5 -0.5,0.5 -0.275,0 -0.5,-0.225 -0.5,-0.5 z m 61,0 c 0,-0.275 0.225,-0.5 0.5,-0.5 0.275,0 0.5,0.225 0.5,0.5 0,0.275 -0.225,0.5 -0.5,0.5 -0.275,0 -0.5,-0.225 -0.5,-0.5 z m 25,0 c 0,-0.275 0.225,-0.5 0.5,-0.5 0.275,0 0.5,0.225 0.5,0.5 0,0.275 -0.225,0.5 -0.5,0.5 -0.275,0 -0.5,-0.225 -0.5,-0.5 z m -105.66667,-1.16666 c 0.36667,-0.36667 0.96667,-0.36667 1.33334,0 0.36666,0.36666 0.0667,0.66666 -0.66667,0.66666 -0.73333,0 -1.03333,-0.3 -0.66667,-0.66666 z m 129.66667,0.16666 c 0,-0.275 0.225,-0.5 0.5,-0.5 0.275,0 0.5,0.225 0.5,0.5 0,0.275 -0.225,0.5 -0.5,0.5 -0.275,0 -0.5,-0.225 -0.5,-0.5 z m -205,-1 c 0,-0.275 0.225,-0.5 0.5,-0.5 0.275,0 0.5,0.225 0.5,0.5 0,0.275 -0.225,0.5 -0.5,0.5 -0.275,0 -0.5,-0.225 -0.5,-0.5 z m 93,-1 c 0,-0.275 0.225,-0.5 0.5,-0.5 0.275,0 0.5,0.225 0.5,0.5 0,0.275 -0.225,0.5 -0.5,0.5 -0.275,0 -0.5,-0.225 -0.5,-0.5 z m -475,-1 c 0,-0.275 0.225,-0.5 0.5,-0.5 0.275,0 0.5,0.225 0.5,0.5 0,0.275 -0.225,0.5 -0.5,0.5 -0.275,0 -0.5,-0.225 -0.5,-0.5 z m -2,-3 c 0,-0.275 0.225,-0.5 0.5,-0.5 0.275,0 0.5,0.225 0.5,0.5 0,0.275 -0.225,0.5 -0.5,0.5 -0.275,0 -0.5,-0.225 -0.5,-0.5 z m 228,0 c 0,-0.275 0.225,-0.5 0.5,-0.5 0.275,0 0.5,0.225 0.5,0.5 0,0.275 -0.225,0.5 -0.5,0.5 -0.275,0 -0.5,-0.225 -0.5,-0.5 z m 181.33333,-2.16666 c 0.36667,-0.36667 0.96667,-0.36667 1.33334,0 0.36666,0.36666 0.0667,0.66666 -0.66667,0.66666 -0.73333,0 -1.03333,-0.3 -0.66667,-0.66666 z m 4.42833,-0.0406 c 1.24391,-0.23919 3.04391,-0.23011 4,0.0202 0.95609,0.2503 -0.0617,0.446 -2.26166,0.4349 -2.2,-0.0111 -2.98225,-0.21588 -1.73834,-0.45508 z m 85.57167,0.0406 c 0.36667,-0.36667 0.96667,-0.36667 1.33334,0 0.36666,0.36666 0.0667,0.66666 -0.66667,0.66666 -0.73333,0 -1.03333,-0.3 -0.66667,-0.66666 z m 4.91667,-0.0227 c 0.9625,-0.25153 2.5375,-0.25153 3.5,0 0.9625,0.25153 0.175,0.45732 -1.75,0.45732 -1.925,0 -2.7125,-0.20579 -1.75,-0.45732 z m 24.75,0.18932 c 0,-0.275 0.225,-0.5 0.5,-0.5 0.275,0 0.5,0.225 0.5,0.5 0,0.275 -0.225,0.5 -0.5,0.5 -0.275,0 -0.5,-0.225 -0.5,-0.5 z m 66.76166,-0.20726 c 1.24391,-0.23919 3.04391,-0.23011 4,0.0202 0.95609,0.2503 -0.0617,0.446 -2.26166,0.4349 -2.2,-0.0111 -2.98225,-0.21588 -1.73834,-0.45508 z m -597.76166,-0.79274 c 0,-0.275 0.225,-0.5 0.5,-0.5 0.275,0 0.5,0.225 0.5,0.5 0,0.275 -0.225,0.5 -0.5,0.5 -0.275,0 -0.5,-0.225 -0.5,-0.5 z m -3,-5 c 0,-0.275 0.225,-0.5 0.5,-0.5 0.275,0 0.5,0.225 0.5,0.5 0,0.275 -0.225,0.5 -0.5,0.5 -0.275,0 -0.5,-0.225 -0.5,-0.5 z m 227,-1 c 0,-0.275 0.225,-0.5 0.5,-0.5 0.275,0 0.5,0.225 0.5,0.5 0,0.275 -0.225,0.5 -0.5,0.5 -0.275,0 -0.5,-0.225 -0.5,-0.5 z m -234,-13 c 0,-0.275 0.225,-0.5 0.5,-0.5 0.275,0 0.5,0.225 0.5,0.5 0,0.275 -0.225,0.5 -0.5,0.5 -0.275,0 -0.5,-0.225 -0.5,-0.5 z m 224,0 c 0,-0.275 0.225,-0.5 0.5,-0.5 0.275,0 0.5,0.225 0.5,0.5 0,0.275 -0.225,0.5 -0.5,0.5 -0.275,0 -0.5,-0.225 -0.5,-0.5 z m -226,-5 c 0,-0.275 0.225,-0.5 0.5,-0.5 0.275,0 0.5,0.225 0.5,0.5 0,0.275 -0.225,0.5 -0.5,0.5 -0.275,0 -0.5,-0.225 -0.5,-0.5 z m 218,-4 c 0,-0.275 0.225,-0.5 0.5,-0.5 0.275,0 0.5,0.225 0.5,0.5 0,0.275 -0.225,0.5 -0.5,0.5 -0.275,0 -0.5,-0.225 -0.5,-0.5 z m -222,-8 c 0,-0.275 0.225,-0.5 0.5,-0.5 0.275,0 0.5,0.225 0.5,0.5 0,0.275 -0.225,0.5 -0.5,0.5 -0.275,0 -0.5,-0.225 -0.5,-0.5 z m 214.40451,-0.6545 c -0.44208,-0.7153 -0.27432,-0.88307 0.44098,-0.44099 1.15275,0.71244 1.54767,1.59549 0.71353,1.59549 -0.24254,0 -0.76207,-0.51952 -1.15451,-1.1545 z m 290.09549,0.0403 c -2.2,-0.50232 -4.675,-1.16116 -5.5,-1.4641 -0.825,-0.30294 -1.725,-0.56001 -2,-0.57128 -0.275,-0.0113 -1.01659,-0.44922 -1.64797,-0.97322 -0.63139,-0.524 -2.17331,-1.1502 -3.42651,-1.39154 -1.25319,-0.24134 -2.64221,-1.01185 -3.08671,-1.71223 -0.4445,-0.70038 -0.81508,-0.9389 -0.8235,-0.53004 -0.008,0.40886 -1.02781,-0.11574 -2.26531,-1.16579 -1.2375,-1.05005 -4.275,-3.57704 -6.75,-5.61554 -4.52443,-3.72647 -12,-12.83514 -12,-14.62148 0,-0.52724 -0.35357,-0.74009 -0.78571,-0.47301 -0.43215,0.26708 -0.85153,-0.26887 -0.93198,-1.19098 -0.0804,-0.92212 -1.24551,-4.82659 -2.58904,-8.67659 -3.42731,-9.82121 -4.19618,-20.89333 -2.18743,-31.5 0.88537,-4.675 1.69626,-9.175 1.80197,-10 0.1057,-0.825 0.44859,-1.725 0.76196,-2 0.31338,-0.275 1.91323,-3.00557 3.55522,-6.06795 3.42616,-6.3899 11.3803,-16.79355 12.90277,-16.87623 0.56527,-0.0307 1.78524,-0.94049 2.71105,-2.02176 2.3726,-2.771 12.25931,-7.57466 19.84115,-9.64023 8.82838,-2.40518 26.21705,-2.41793 34.92004,-0.0256 26.82198,7.37297 43.14741,29.28787 43.30509,58.13177 0.0921,16.84802 -5.41857,30.63562 -16.79294,42.01565 -7.98966,7.99365 -17.72526,13.61564 -27.61526,15.94691 -7.04239,1.66004 -24.92434,1.90109 -31.39689,0.42324 z m 30.51243,-24.212 c 7.0335,-3.32111 12.14342,-8.59017 15.68531,-16.1738 2.58067,-5.52554 2.80226,-6.94892 2.80226,-18 0,-11.05394 -0.22107,-12.47302 -2.80414,-18 -3.50517,-7.49997 -7.68454,-11.87632 -14.35569,-15.03228 -15.10919,-7.14779 -29.8011,-5.16679 -40.41767,5.44978 -7.85888,7.85889 -10.26446,14.32645 -10.25916,27.5825 0.007,18.58865 7.28015,30.57285 21.66911,35.70701 7.53795,2.68964 20.22506,1.98689 27.67998,-1.53321 z m -168.37058,19.5762 c -0.34091,-2.0625 -0.62479,-27.9375 -0.63084,-57.5 l -0.011,-53.75 h 40.5 40.5 v 11 11 h -28 -28 v 14 14 h 23.5 23.5 v 10.5 10.5 h -23.5 -23.5 v 22 22 H 559.87286 548.0037 Z m 217.35815,2.62889 c 0,-0.50524 1.13064,-2.70969 2.51254,-4.89876 1.3819,-2.18907 2.32251,-3.98013 2.09023,-3.98013 -0.23227,0 0.64323,-1.2375 1.94555,-2.75 1.30232,-1.5125 8.95669,-12.82832 17.0097,-25.14627 l 14.64185,-22.39627 -14.31731,-21.2784 c -7.87452,-11.70312 -14.59449,-21.10709 -14.93327,-20.89772 -0.33878,0.20938 -0.61596,-0.19693 -0.61596,-0.90291 0,-1.35714 -5.95628,-10.5383 -7.76733,-11.97276 -0.63073,-0.49957 -0.31804,-0.60165 0.76579,-0.25 1.00748,0.32688 7.61038,0.59433 14.6731,0.59433 h 12.84132 l 11.80992,17.5 c 6.49545,9.625 12.04256,17.49479 12.32689,17.48842 0.28434,-0.006 5.69198,-7.99387 12.01698,-17.75 l 11.5,-17.73842 h 13.77615 c 8.7279,0 13.67495,0.36753 13.5,1.00294 -0.15188,0.55162 -8.31571,13.01263 -18.14185,27.69113 l -17.86569,26.68819 20.11569,29.52198 c 11.06364,16.23708 20.1157,29.79049 20.1157,30.11868 0,0.32819 -6.32048,0.50414 -14.0455,0.39098 -12.38676,-0.18143 -14.19834,-0.42394 -15.33969,-2.05345 -0.71181,-1.01625 -1.51634,-1.62559 -1.78784,-1.35408 -0.2715,0.2715 -0.50125,-0.0689 -0.51056,-0.75637 -0.0225,-1.65921 -9.84961,-16.88346 -10.48684,-16.24624 -0.27293,0.27294 -0.49624,-0.0705 -0.49624,-0.76313 0,-0.69265 -2.63051,-5.21213 -5.84559,-10.0433 -5.55821,-8.3521 -5.9286,-8.69577 -7.53426,-6.99063 -0.92878,0.98632 -6.99252,10.02447 -13.475,20.08479 l -11.78632,18.29148 -13.34608,-0.14272 c -7.34034,-0.0785 -13.34608,-0.55611 -13.34608,-1.06136 z m -585,-1.37889 c 0,-0.275 0.225,-0.5 0.5,-0.5 0.275,0 0.5,0.225 0.5,0.5 0,0.275 -0.225,0.5 -0.5,0.5 -0.275,0 -0.5,-0.225 -0.5,-0.5 z m 73.08857,-3 c -2.15556,-5.17419 -5.93131,-20.64808 -7.16888,-29.37968 -2.20682,-15.57 0.34907,-29.66878 8.22492,-45.37032 1.5863,-3.1625 2.64589,-5.75 2.35464,-5.75 -2.00361,0 -12.90466,7.38314 -18.16106,12.30025 -7.53075,7.04465 -11.85676,12.75262 -16.82966,22.20595 l -3.67907,6.9938 0.49664,-9.60792 c 0.54765,-10.59455 2.67075,-17.15163 9.68544,-29.91306 5.92496,-10.77897 12.47396,-19.4947 22.45403,-29.88298 8.01117,-8.33885 22.16903,-20.08877 25.73756,-21.36018 0.71328,-0.25412 1.03675,-0.74628 0.71882,-1.09367 -0.8397,-0.91752 -16.26379,4.48457 -26.49886,9.28089 -15.39017,7.21207 -27.64569,16.12665 -41.92309,30.49453 -13.62013,13.70646 -23.90482,27.12895 -30.136,39.33032 -2.03581,3.98636 -3.82528,7.12413 -3.9766,6.97281 -0.86603,-0.86603 1.96065,-22.30915 3.71363,-28.17141 2.43925,-8.15728 8.55861,-20.67699 14.09034,-28.82768 8.83465,-13.01738 27.13364,-28.1294 41.58354,-34.34132 l 5.72509,-2.46118 -13,0.46727 c -18.28427,0.65722 -33.18362,5.07443 -44,13.04469 -6.14206,4.52589 -5.80301,3.7346 2.13814,-4.99004 12.38661,-13.6087 19.12277,-19.66428 29.33005,-26.36674 8.80397,-5.78099 22.75175,-13.07433 25.00336,-13.07433 0.56565,0 1.02845,-0.45 1.02845,-1 0,-0.55 -0.93128,-1 -2.06952,-1 -4.5163,0 -17.06138,-6.26693 -22.50584,-11.24287 -13.9658,-12.76395 -20.63169,-40.86401 -17.49666,-73.75713 1.2071,-12.66508 3.85996,-32.12127 4.4618,-32.72311 0.18069,-0.18069 3.65441,1.88255 7.71938,4.58499 4.06496,2.70244 17.96584,11.88281 30.89084,20.40082 26.63939,17.55626 37.03364,25.22029 64.05045,47.22655 10.47329,8.53092 19.27303,15.51075 19.55497,15.51075 0.71902,0 -0.12719,-1.30972 -7.34376,-11.36627 -3.49934,-4.87646 -6.1697,-9.05902 -5.93414,-9.29458 0.23556,-0.23556 5.36323,-0.44174 11.3948,-0.45817 16.4345,-0.0448 34.29282,4.79399 55.84173,15.13046 24.53258,11.76766 45.59462,31.07253 52.85251,48.44312 1.85539,4.44056 1.39851,5.59305 -1.26255,3.18482 -1.60034,-1.44828 -2.57274,-1.52846 -7.00613,-0.57767 -2.83133,0.60721 -5.14788,1.51673 -5.14788,2.02116 0,0.50442 0.37998,0.91713 0.84441,0.91713 0.46443,0 3.45782,2.28694 6.65199,5.08209 6.23404,5.45526 24.59717,18.02216 36.0036,24.63925 8.8685,5.14478 29.82474,15.60966 34.75,17.35306 2.0625,0.73006 3.75,1.60532 3.75,1.94502 0,0.3397 -4.725,0.49613 -10.5,0.34762 l -10.5,-0.27002 0.007,3.70149 c 0.009,4.63793 3.48008,19.30896 5.48691,23.18975 0.82835,1.60183 1.50608,3.08477 1.50608,3.29542 0,1.13526 -23.8897,0.9317 -31.5,-0.2684 -9.45085,-1.49034 -11.01723,-1.92132 -42,-11.55603 -42.79069,-13.30661 -64.46356,-17.82099 -85.5,-17.80933 -17.22228,0.01 -31.07656,3.12968 -48.5,10.92273 l -4,1.78909 11.5,1.3741 c 6.325,0.75575 16.675,1.69131 23,2.07901 11.39656,0.69858 11.46402,0.71731 7.5,2.08246 -12.08294,4.16118 -26.98437,13.82028 -36.65707,23.7611 -15.71981,16.15554 -20.65987,27.84606 -24.65337,58.34159 -0.83726,6.39352 -0.87168,6.45086 -2.10099,3.5 z M 422.84298,442.8905 c -6.5009,-7.50408 -15.40708,-15.82648 -26.01997,-24.31443 -8.07442,-6.45772 -8.7728,-6.79332 -19.47785,-9.35989 -10.14167,-2.43149 -12.35878,-2.6192 -25.60315,-2.16765 -13.17893,0.44932 -31,3.17137 -31,4.73505 0,0.32214 4.35082,1.13524 9.66849,1.80687 8.16303,1.03101 11.07617,1.9375 18.70895,5.82169 4.97224,2.53029 10.63392,5.60268 12.5815,6.82754 12.68272,7.9763 30.85046,16.53427 35.10066,16.53427 2.30463,0 0.55545,-3.82213 -3.74931,-8.1926 -2.57934,-2.61872 -4.48317,-4.96785 -4.23073,-5.22029 0.25244,-0.25244 5.40031,2.74725 11.43971,6.66598 10.88251,7.06124 22.26738,12.66773 25.82967,12.71986 1.42038,0.0208 0.66753,-1.33667 -3.24797,-5.8564 z m -151.1523,-41.86655 c -0.0282,-0.4125 -3.22376,-3.225 -7.10116,-6.25 -6.36525,-4.96591 -26.84751,-26.46784 -26.84751,-28.18405 0,-1.66219 30.45263,13.88608 35.25613,18.00081 0.96587,0.82737 1.95824,1.30221 2.20525,1.05519 0.24702,-0.24701 -5.45184,-7.40675 -12.66414,-15.91053 -17.28593,-20.38128 -26.68504,-32.27935 -35.78021,-45.29316 l -7.48296,-10.70701 -1.73775,5.11236 c -3.86856,11.38113 -4.12576,24.99185 -0.78859,41.73116 5.19909,26.07871 17.47611,36.76314 46.04632,40.07312 4.09527,0.47445 7.78345,0.92102 8.19595,0.99238 0.4125,0.0713 0.7269,-0.20777 0.69867,-0.62027 z m -115.94867,177.25 c 0,-0.275 0.225,-0.5 0.5,-0.5 0.275,0 0.5,0.225 0.5,0.5 0,0.275 -0.225,0.5 -0.5,0.5 -0.275,0 -0.5,-0.225 -0.5,-0.5 z m -2,-5 c 0,-0.275 0.225,-0.5 0.5,-0.5 0.275,0 0.5,0.225 0.5,0.5 0,0.275 -0.225,0.5 -0.5,0.5 -0.275,0 -0.5,-0.225 -0.5,-0.5 z m 24,-3 c 0,-0.275 0.225,-0.5 0.5,-0.5 0.275,0 0.5,0.225 0.5,0.5 0,0.275 -0.225,0.5 -0.5,0.5 -0.275,0 -0.5,-0.225 -0.5,-0.5 z m 206,-1 c 0,-0.275 0.225,-0.5 0.5,-0.5 0.275,0 0.5,0.225 0.5,0.5 0,0.275 -0.225,0.5 -0.5,0.5 -0.275,0 -0.5,-0.225 -0.5,-0.5 z m -213,-1 c 0,-0.275 0.225,-0.5 0.5,-0.5 0.275,0 0.5,0.225 0.5,0.5 0,0.275 -0.225,0.5 -0.5,0.5 -0.275,0 -0.5,-0.225 -0.5,-0.5 z m 3,-4 c 0,-0.275 0.225,-0.5 0.5,-0.5 0.275,0 0.5,0.225 0.5,0.5 0,0.275 -0.225,0.5 -0.5,0.5 -0.275,0 -0.5,-0.225 -0.5,-0.5 z m -23,-1 c 0,-0.275 0.225,-0.5 0.5,-0.5 0.275,0 0.5,0.225 0.5,0.5 0,0.275 -0.225,0.5 -0.5,0.5 -0.275,0 -0.5,-0.225 -0.5,-0.5 z m 228,-8 c 0,-0.275 0.225,-0.5 0.5,-0.5 0.275,0 0.5,0.225 0.5,0.5 0,0.275 -0.225,0.5 -0.5,0.5 -0.275,0 -0.5,-0.225 -0.5,-0.5 z m -230,-4 c 0,-0.275 0.225,-0.5 0.5,-0.5 0.275,0 0.5,0.225 0.5,0.5 0,0.275 -0.225,0.5 -0.5,0.5 -0.275,0 -0.5,-0.225 -0.5,-0.5 z m 230,-4 c 0,-0.275 0.225,-0.5 0.5,-0.5 0.275,0 0.5,0.225 0.5,0.5 0,0.275 -0.225,0.5 -0.5,0.5 -0.275,0 -0.5,-0.225 -0.5,-0.5 z m 3,-7 c 0,-0.275 0.225,-0.5 0.5,-0.5 0.275,0 0.5,0.225 0.5,0.5 0,0.275 -0.225,0.5 -0.5,0.5 -0.275,0 -0.5,-0.225 -0.5,-0.5 z m 61,-7 c 0,-0.275 0.225,-0.5 0.5,-0.5 0.275,0 0.5,0.225 0.5,0.5 0,0.275 -0.225,0.5 -0.5,0.5 -0.275,0 -0.5,-0.225 -0.5,-0.5 z m 18,0 c 0,-0.275 0.225,-0.5 0.5,-0.5 0.275,0 0.5,0.225 0.5,0.5 0,0.275 -0.225,0.5 -0.5,0.5 -0.275,0 -0.5,-0.225 -0.5,-0.5 z m -30,-2 c 0,-0.275 0.225,-0.5 0.5,-0.5 0.275,0 0.5,0.225 0.5,0.5 0,0.275 -0.225,0.5 -0.5,0.5 -0.275,0 -0.5,-0.225 -0.5,-0.5 z m -28,-2 c 0,-0.275 0.225,-0.5 0.5,-0.5 0.275,0 0.5,0.225 0.5,0.5 0,0.275 -0.225,0.5 -0.5,0.5 -0.275,0 -0.5,-0.225 -0.5,-0.5 z m 16,0 c 0,-0.275 0.225,-0.5 0.5,-0.5 0.275,0 0.5,0.225 0.5,0.5 0,0.275 -0.225,0.5 -0.5,0.5 -0.275,0 -0.5,-0.225 -0.5,-0.5 z m -270,-1 c 0,-0.275 0.225,-0.5 0.5,-0.5 0.275,0 0.5,0.225 0.5,0.5 0,0.275 -0.225,0.5 -0.5,0.5 -0.275,0 -0.5,-0.225 -0.5,-0.5 z m 329,-2 c 0,-0.275 0.225,-0.5 0.5,-0.5 0.275,0 0.5,0.225 0.5,0.5 0,0.275 -0.225,0.5 -0.5,0.5 -0.275,0 -0.5,-0.225 -0.5,-0.5 z m 6,-4 c 0,-0.275 0.225,-0.5 0.5,-0.5 0.275,0 0.5,0.225 0.5,0.5 0,0.275 -0.225,0.5 -0.5,0.5 -0.275,0 -0.5,-0.225 -0.5,-0.5 z m 4,-3 c 0,-0.275 0.225,-0.5 0.5,-0.5 0.275,0 0.5,0.225 0.5,0.5 0,0.275 -0.225,0.5 -0.5,0.5 -0.275,0 -0.5,-0.225 -0.5,-0.5 z m -26,-3 c 0,-0.275 0.225,-0.5 0.5,-0.5 0.275,0 0.5,0.225 0.5,0.5 0,0.275 -0.225,0.5 -0.5,0.5 -0.275,0 -0.5,-0.225 -0.5,-0.5 z m -31,-2 c 0,-0.275 0.225,-0.5 0.5,-0.5 0.275,0 0.5,0.225 0.5,0.5 0,0.275 -0.225,0.5 -0.5,0.5 -0.275,0 -0.5,-0.225 -0.5,-0.5 z m -6,-1 c 0,-0.275 0.225,-0.5 0.5,-0.5 0.275,0 0.5,0.225 0.5,0.5 0,0.275 -0.225,0.5 -0.5,0.5 -0.275,0 -0.5,-0.225 -0.5,-0.5 z m -273,-2 c 0,-0.275 0.225,-0.5 0.5,-0.5 0.275,0 0.5,0.225 0.5,0.5 0,0.275 -0.225,0.5 -0.5,0.5 -0.275,0 -0.5,-0.225 -0.5,-0.5 z m 248,-3 c 0,-0.275 0.225,-0.5 0.5,-0.5 0.275,0 0.5,0.225 0.5,0.5 0,0.275 -0.225,0.5 -0.5,0.5 -0.275,0 -0.5,-0.225 -0.5,-0.5 z m 81,-1 c 0,-0.275 0.225,-0.5 0.5,-0.5 0.275,0 0.5,0.225 0.5,0.5 0,0.275 -0.225,0.5 -0.5,0.5 -0.275,0 -0.5,-0.225 -0.5,-0.5 z m -90,-1 c 0,-0.275 0.225,-0.5 0.5,-0.5 0.275,0 0.5,0.225 0.5,0.5 0,0.275 -0.225,0.5 -0.5,0.5 -0.275,0 -0.5,-0.225 -0.5,-0.5 z m -4,-1 c 0,-0.275 0.225,-0.5 0.5,-0.5 0.275,0 0.5,0.225 0.5,0.5 0,0.275 -0.225,0.5 -0.5,0.5 -0.275,0 -0.5,-0.225 -0.5,-0.5 z m -233,-1 c 0,-0.275 0.225,-0.5 0.5,-0.5 0.275,0 0.5,0.225 0.5,0.5 0,0.275 -0.225,0.5 -0.5,0.5 -0.275,0 -0.5,-0.225 -0.5,-0.5 z m 229,0 c 0,-0.275 0.225,-0.5 0.5,-0.5 0.275,0 0.5,0.225 0.5,0.5 0,0.275 -0.225,0.5 -0.5,0.5 -0.275,0 -0.5,-0.225 -0.5,-0.5 z m -5,-1 c 0,-0.275 0.225,-0.5 0.5,-0.5 0.275,0 0.5,0.225 0.5,0.5 0,0.275 -0.225,0.5 -0.5,0.5 -0.275,0 -0.5,-0.225 -0.5,-0.5 z m -11.66667,-1.16666 c 0.36667,-0.36667 0.96667,-0.36667 1.33334,0 0.36666,0.36666 0.0667,0.66666 -0.66667,0.66666 -0.73333,0 -1.03333,-0.3 -0.66667,-0.66666 z m -211.33333,-0.83334 c 0,-0.275 0.225,-0.5 0.5,-0.5 0.275,0 0.5,0.225 0.5,0.5 0,0.275 -0.225,0.5 -0.5,0.5 -0.275,0 -0.5,-0.225 -0.5,-0.5 z m 183,-2 c 0,-0.275 0.225,-0.5 0.5,-0.5 0.275,0 0.5,0.225 0.5,0.5 0,0.275 -0.225,0.5 -0.5,0.5 -0.275,0 -0.5,-0.225 -0.5,-0.5 z m 88,-1 c 0,-0.275 0.225,-0.5 0.5,-0.5 0.275,0 0.5,0.225 0.5,0.5 0,0.275 -0.225,0.5 -0.5,0.5 -0.275,0 -0.5,-0.225 -0.5,-0.5 z m -6,-1 c 0,-0.275 0.225,-0.5 0.5,-0.5 0.275,0 0.5,0.225 0.5,0.5 0,0.275 -0.225,0.5 -0.5,0.5 -0.275,0 -0.5,-0.225 -0.5,-0.5 z m -263,-1 c 0,-0.275 0.225,-0.5 0.5,-0.5 0.275,0 0.5,0.225 0.5,0.5 0,0.275 -0.225,0.5 -0.5,0.5 -0.275,0 -0.5,-0.225 -0.5,-0.5 z m 256,0 c 0,-0.275 0.225,-0.5 0.5,-0.5 0.275,0 0.5,0.225 0.5,0.5 0,0.275 -0.225,0.5 -0.5,0.5 -0.275,0 -0.5,-0.225 -0.5,-0.5 z m -61,-1 c 0,-0.275 0.225,-0.5 0.5,-0.5 0.275,0 0.5,0.225 0.5,0.5 0,0.275 -0.225,0.5 -0.5,0.5 -0.275,0 -0.5,-0.225 -0.5,-0.5 z m 51,0 c 0,-0.275 0.225,-0.5 0.5,-0.5 0.275,0 0.5,0.225 0.5,0.5 0,0.275 -0.225,0.5 -0.5,0.5 -0.275,0 -0.5,-0.225 -0.5,-0.5 z m 106,0 c 0,-0.275 0.225,-0.5 0.5,-0.5 0.275,0 0.5,0.225 0.5,0.5 0,0.275 -0.225,0.5 -0.5,0.5 -0.275,0 -0.5,-0.225 -0.5,-0.5 z m -116,-1 c 0,-0.275 0.225,-0.5 0.5,-0.5 0.275,0 0.5,0.225 0.5,0.5 0,0.275 -0.225,0.5 -0.5,0.5 -0.275,0 -0.5,-0.225 -0.5,-0.5 z m -29.75,-1.18932 c 0.9625,-0.25153 2.5375,-0.25153 3.5,0 0.9625,0.25153 0.175,0.45732 -1.75,0.45732 -1.925,0 -2.7125,-0.20579 -1.75,-0.45732 z m 7.5,-0.0164 c 1.2375,-0.23835 3.2625,-0.23835 4.5,0 1.2375,0.23835 0.225,0.43337 -2.25,0.43337 -2.475,0 -3.4875,-0.19502 -2.25,-0.43337 z m 141.25,-3.79427 c 0,-0.275 0.225,-0.5 0.5,-0.5 0.275,0 0.5,0.225 0.5,0.5 0,0.275 -0.225,0.5 -0.5,0.5 -0.275,0 -0.5,-0.225 -0.5,-0.5 z m -372,-3 c 0,-0.275 0.225,-0.5 0.5,-0.5 0.275,0 0.5,0.225 0.5,0.5 0,0.275 -0.225,0.5 -0.5,0.5 -0.275,0 -0.5,-0.225 -0.5,-0.5 z m 20,-7 c 0,-0.275 0.225,-0.5 0.5,-0.5 0.275,0 0.5,0.225 0.5,0.5 0,0.275 -0.225,0.5 -0.5,0.5 -0.275,0 -0.5,-0.225 -0.5,-0.5 z m -16,-5 c 0,-0.275 0.225,-0.5 0.5,-0.5 0.275,0 0.5,0.225 0.5,0.5 0,0.275 -0.225,0.5 -0.5,0.5 -0.275,0 -0.5,-0.225 -0.5,-0.5 z m 8,-17 c 0,-0.275 0.225,-0.5 0.5,-0.5 0.275,0 0.5,0.225 0.5,0.5 0,0.275 -0.225,0.5 -0.5,0.5 -0.275,0 -0.5,-0.225 -0.5,-0.5 z m 1,-2 c 0,-0.275 0.225,-0.5 0.5,-0.5 0.275,0 0.5,0.225 0.5,0.5 0,0.275 -0.225,0.5 -0.5,0.5 -0.275,0 -0.5,-0.225 -0.5,-0.5 z m 323,-3 c 0,-0.275 0.225,-0.5 0.5,-0.5 0.275,0 0.5,0.225 0.5,0.5 0,0.275 -0.225,0.5 -0.5,0.5 -0.275,0 -0.5,-0.225 -0.5,-0.5 z m -2,-1 c 0,-0.275 0.225,-0.5 0.5,-0.5 0.275,0 0.5,0.225 0.5,0.5 0,0.275 -0.225,0.5 -0.5,0.5 -0.275,0 -0.5,-0.225 -0.5,-0.5 z m -7,-4 c 0,-0.275 0.225,-0.5 0.5,-0.5 0.275,0 0.5,0.225 0.5,0.5 0,0.275 -0.225,0.5 -0.5,0.5 -0.275,0 -0.5,-0.225 -0.5,-0.5 z m -309,-1 c 0,-0.275 0.225,-0.5 0.5,-0.5 0.275,0 0.5,0.225 0.5,0.5 0,0.275 -0.225,0.5 -0.5,0.5 -0.275,0 -0.5,-0.225 -0.5,-0.5 z m 304,-2 c 0,-0.275 0.225,-0.5 0.5,-0.5 0.275,0 0.5,0.225 0.5,0.5 0,0.275 -0.225,0.5 -0.5,0.5 -0.275,0 -0.5,-0.225 -0.5,-0.5 z m -8,-5 c 0,-0.275 0.225,-0.5 0.5,-0.5 0.275,0 0.5,0.225 0.5,0.5 0,0.275 -0.225,0.5 -0.5,0.5 -0.275,0 -0.5,-0.225 -0.5,-0.5 z m 312.0144,-58.25 -0.0442,-58.25 h 26.56751 c 30.09211,0 35.94541,0.81535 48.46233,6.75068 23.11808,10.96223 34.93307,38.64129 28.02455,65.65331 -5.06567,19.8066 -18.13893,33.84866 -37.52455,40.30534 -7.70846,2.56743 -9.04667,2.68505 -36.72068,3.2276 l -28.72069,0.56307 z m 54.23642,33.27289 c 7.31718,-1.90588 11.27489,-4.08425 16.3943,-9.02357 4.29494,-4.14388 7.74115,-9.77972 6.64833,-10.87253 -0.34473,-0.34473 -0.0536,-0.62679 0.64687,-0.62679 0.70895,0 1.0239,-0.65086 0.71034,-1.46797 -0.30982,-0.80739 -0.11143,-1.74725 0.44086,-2.08859 0.5523,-0.34134 0.91349,-1.36825 0.80264,-2.28203 -0.11084,-0.91377 0.1416,-2.45108 0.56099,-3.41624 0.4194,-0.96515 0.48328,-3.44015 0.14196,-5.5 -0.34131,-2.05984 -0.60814,-4.98267 -0.59296,-6.49517 0.0152,-1.5125 -0.45609,-2.75 -1.04728,-2.75 -0.5912,0 -0.80903,-0.43019 -0.48408,-0.95598 1.04701,-1.69409 -2.24518,-7.90012 -6.29854,-11.87321 -8.95134,-8.77411 -16.54306,-11.17081 -35.38435,-11.17081 h -12.7899 v 35 35 h 12.2899 c 7.61355,0 14.44774,-0.56204 17.96092,-1.47711 z m -271.63639,22.91472 c -0.46154,-1.20276 -0.1883,-112.87012 0.27957,-114.25032 0.0583,-0.17199 14.64346,-0.17199 32.41147,0 l 32.30546,0.31271 7.64052,3.77793 c 15.35176,7.59083 21.91491,21.06402 19.60548,40.24718 -1.40093,11.63669 -7.23324,20.74966 -16.77329,26.2082 -2.521,1.44244 -4.74166,2.73806 -4.93479,2.87914 -0.29321,0.21419 15.45799,28.15922 22.05986,39.13755 l 1.95441,3.25 h -13.85416 -13.85415 l -1.88488,-3.5 c -1.03668,-1.925 -2.33901,-3.5 -2.89407,-3.5 -0.55506,0 -0.71556,-0.29363 -0.35667,-0.65252 0.92076,-0.92076 -13.17995,-26.65218 -15.8083,-28.84748 -0.68438,-0.57162 -5.54821,-0.86445 -11.35408,-0.68358 l -10.15681,0.31641 v 18.43359 18.43358 H 560.849 c -9.86017,0 -11.99549,-0.26705 -12.49256,-1.56239 z m 57.04704,-59.37104 c 8.92418,-4.05201 11.4551,-9.75158 10.1318,-22.81657 -0.0696,-0.6875 -0.5016,-1.25 -0.95994,-1.25 -0.45833,0 -0.72083,-0.37754 -0.58333,-0.83899 0.34672,-1.16358 -5.39814,-5.88663 -8.67604,-7.13288 -1.48729,-0.56547 -9.42486,-1.02813 -17.63906,-1.02813 h -14.9349 l -0.125,14.5 c -0.0688,7.975 -0.21044,15.5125 -0.31487,16.75 -0.10442,1.2375 -0.0216,2.5875 0.18402,3 0.20564,0.4125 6.75983,0.74012 14.56487,0.72804 11.74724,-0.0182 14.9076,-0.34734 18.35245,-1.91147 z m 57.33853,2.93343 v -58 h 40.5 40.5 v 11 11 h -28.53078 -28.53078 l 0.28078,12.15332 0.28078,12.15331 24.5,0.14696 24.5,0.14696 0.22077,10.69973 0.22078,10.69972 h -24.9998 -24.9998 l 0.27902,13.25 0.27903,13.25 28.25,0.26558 28.25,0.26557 v 10.48443 10.48442 h -40.5 -40.5 z m -217,53.5 c 0,-0.275 0.225,-0.5 0.5,-0.5 0.275,0 0.5,0.225 0.5,0.5 0,0.275 -0.225,0.5 -0.5,0.5 -0.275,0 -0.5,-0.225 -0.5,-0.5 z m -278,-3 c 0,-0.275 0.225,-0.5 0.5,-0.5 0.275,0 0.5,0.225 0.5,0.5 0,0.275 -0.225,0.5 -0.5,0.5 -0.275,0 -0.5,-0.225 -0.5,-0.5 z m 273,0 c 0,-0.275 0.225,-0.5 0.5,-0.5 0.275,0 0.5,0.225 0.5,0.5 0,0.275 -0.225,0.5 -0.5,0.5 -0.275,0 -0.5,-0.225 -0.5,-0.5 z m -1,-4 c 0,-0.275 0.225,-0.5 0.5,-0.5 0.275,0 0.5,0.225 0.5,0.5 0,0.275 -0.225,0.5 -0.5,0.5 -0.275,0 -0.5,-0.225 -0.5,-0.5 z m 1,-4 c 0,-0.275 0.225,-0.5 0.5,-0.5 0.275,0 0.5,0.225 0.5,0.5 0,0.275 -0.225,0.5 -0.5,0.5 -0.275,0 -0.5,-0.225 -0.5,-0.5 z m -263,-5 c 0,-0.275 0.225,-0.5 0.5,-0.5 0.275,0 0.5,0.225 0.5,0.5 0,0.275 -0.225,0.5 -0.5,0.5 -0.275,0 -0.5,-0.225 -0.5,-0.5 z m 263,0 c 0,-0.275 0.225,-0.5 0.5,-0.5 0.275,0 0.5,0.225 0.5,0.5 0,0.275 -0.225,0.5 -0.5,0.5 -0.275,0 -0.5,-0.225 -0.5,-0.5 z m -257,-7 c 0,-0.275 0.225,-0.5 0.5,-0.5 0.275,0 0.5,0.225 0.5,0.5 0,0.275 -0.225,0.5 -0.5,0.5 -0.275,0 -0.5,-0.225 -0.5,-0.5 z m 250,-11 c 0,-0.275 0.225,-0.5 0.5,-0.5 0.275,0 0.5,0.225 0.5,0.5 0,0.275 -0.225,0.5 -0.5,0.5 -0.275,0 -0.5,-0.225 -0.5,-0.5 z m -2,-3 c 0,-0.275 0.225,-0.5 0.5,-0.5 0.275,0 0.5,0.225 0.5,0.5 0,0.275 -0.225,0.5 -0.5,0.5 -0.275,0 -0.5,-0.225 -0.5,-0.5 z m -4,-5 c 0,-0.275 0.225,-0.5 0.5,-0.5 0.275,0 0.5,0.225 0.5,0.5 0,0.275 -0.225,0.5 -0.5,0.5 -0.275,0 -0.5,-0.225 -0.5,-0.5 z m -231,-2 c 0,-0.275 0.225,-0.5 0.5,-0.5 0.275,0 0.5,0.225 0.5,0.5 0,0.275 -0.225,0.5 -0.5,0.5 -0.275,0 -0.5,-0.225 -0.5,-0.5 z m -2,-3 c 0,-0.275 0.225,-0.5 0.5,-0.5 0.275,0 0.5,0.225 0.5,0.5 0,0.275 -0.225,0.5 -0.5,0.5 -0.275,0 -0.5,-0.225 -0.5,-0.5 z m 224,-4 c 0,-0.275 0.225,-0.5 0.5,-0.5 0.275,0 0.5,0.225 0.5,0.5 0,0.275 -0.225,0.5 -0.5,0.5 -0.275,0 -0.5,-0.225 -0.5,-0.5 z m -228,-4 c 0,-0.275 0.225,-0.5 0.5,-0.5 0.275,0 0.5,0.225 0.5,0.5 0,0.275 -0.225,0.5 -0.5,0.5 -0.275,0 -0.5,-0.225 -0.5,-0.5 z m 222,-1 c 0,-0.275 0.225,-0.5 0.5,-0.5 0.275,0 0.5,0.225 0.5,0.5 0,0.275 -0.225,0.5 -0.5,0.5 -0.275,0 -0.5,-0.225 -0.5,-0.5 z m -4,-3 c 0,-0.275 0.225,-0.5 0.5,-0.5 0.275,0 0.5,0.225 0.5,0.5 0,0.275 -0.225,0.5 -0.5,0.5 -0.275,0 -0.5,-0.225 -0.5,-0.5 z m -222,-8 c 0,-0.275 0.225,-0.5 0.5,-0.5 0.275,0 0.5,0.225 0.5,0.5 0,0.275 -0.225,0.5 -0.5,0.5 -0.275,0 -0.5,-0.225 -0.5,-0.5 z m 210,0 c 0,-0.275 0.225,-0.5 0.5,-0.5 0.275,0 0.5,0.225 0.5,0.5 0,0.275 -0.225,0.5 -0.5,0.5 -0.275,0 -0.5,-0.225 -0.5,-0.5 z m -211,-4 c 0,-0.275 0.225,-0.5 0.5,-0.5 0.275,0 0.5,0.225 0.5,0.5 0,0.275 -0.225,0.5 -0.5,0.5 -0.275,0 -0.5,-0.225 -0.5,-0.5 z m 204,0 c 0,-0.275 0.225,-0.5 0.5,-0.5 0.275,0 0.5,0.225 0.5,0.5 0,0.275 -0.225,0.5 -0.5,0.5 -0.275,0 -0.5,-0.225 -0.5,-0.5 z m -205,-5 c 0,-0.275 0.225,-0.5 0.5,-0.5 0.275,0 0.5,0.225 0.5,0.5 0,0.275 -0.225,0.5 -0.5,0.5 -0.275,0 -0.5,-0.225 -0.5,-0.5 z m 195,-3 c 0,-0.275 0.225,-0.5 0.5,-0.5 0.275,0 0.5,0.225 0.5,0.5 0,0.275 -0.225,0.5 -0.5,0.5 -0.275,0 -0.5,-0.225 -0.5,-0.5 z m -5,-15 c 0,-0.275 0.225,-0.5 0.5,-0.5 0.275,0 0.5,0.225 0.5,0.5 0,0.275 -0.225,0.5 -0.5,0.5 -0.275,0 -0.5,-0.225 -0.5,-0.5 z m -191.70034,-5.5 c 0,-3.025 0.18747,-4.2625 0.41659,-2.75 0.22913,1.5125 0.22913,3.9875 0,5.5 -0.22912,1.5125 -0.41659,0.275 -0.41659,-2.75 z m 118.70034,3.5 c 0,-0.275 0.225,-0.5 0.5,-0.5 0.275,0 0.5,0.225 0.5,0.5 0,0.275 -0.225,0.5 -0.5,0.5 -0.275,0 -0.5,-0.225 -0.5,-0.5 z m -4,-1 c 0,-0.275 0.225,-0.5 0.5,-0.5 0.275,0 0.5,0.225 0.5,0.5 0,0.275 -0.225,0.5 -0.5,0.5 -0.275,0 -0.5,-0.225 -0.5,-0.5 z m -6,-2 c 0,-0.275 0.225,-0.5 0.5,-0.5 0.275,0 0.5,0.225 0.5,0.5 0,0.275 -0.225,0.5 -0.5,0.5 -0.275,0 -0.5,-0.225 -0.5,-0.5 z m -11,-9 c 0,-0.275 0.225,-0.5 0.5,-0.5 0.275,0 0.5,0.225 0.5,0.5 0,0.275 -0.225,0.5 -0.5,0.5 -0.275,0 -0.5,-0.225 -0.5,-0.5 z m 28,0 c 0,-0.275 0.225,-0.5 0.5,-0.5 0.275,0 0.5,0.225 0.5,0.5 0,0.275 -0.225,0.5 -0.5,0.5 -0.275,0 -0.5,-0.225 -0.5,-0.5 z m 59,-2 c 0,-0.275 0.225,-0.5 0.5,-0.5 0.275,0 0.5,0.225 0.5,0.5 0,0.275 -0.225,0.5 -0.5,0.5 -0.275,0 -0.5,-0.225 -0.5,-0.5 z m -1,-2 c 0,-0.275 0.225,-0.5 0.5,-0.5 0.275,0 0.5,0.225 0.5,0.5 0,0.275 -0.225,0.5 -0.5,0.5 -0.275,0 -0.5,-0.225 -0.5,-0.5 z m -1,-2 c 0,-0.275 0.225,-0.5 0.5,-0.5 0.275,0 0.5,0.225 0.5,0.5 0,0.275 -0.225,0.5 -0.5,0.5 -0.275,0 -0.5,-0.225 -0.5,-0.5 z m -1,-2 c 0,-0.275 0.225,-0.5 0.5,-0.5 0.275,0 0.5,0.225 0.5,0.5 0,0.275 -0.225,0.5 -0.5,0.5 -0.275,0 -0.5,-0.225 -0.5,-0.5 z m -1,-2 c 0,-0.275 0.225,-0.5 0.5,-0.5 0.275,0 0.5,0.225 0.5,0.5 0,0.275 -0.225,0.5 -0.5,0.5 -0.275,0 -0.5,-0.225 -0.5,-0.5 z m -180,-2 c 0,-0.275 0.225,-0.5 0.5,-0.5 0.275,0 0.5,0.225 0.5,0.5 0,0.275 -0.225,0.5 -0.5,0.5 -0.275,0 -0.5,-0.225 -0.5,-0.5 z m 77,-3 c 0,-0.275 0.225,-0.5 0.5,-0.5 0.275,0 0.5,0.225 0.5,0.5 0,0.275 -0.225,0.5 -0.5,0.5 -0.275,0 -0.5,-0.225 -0.5,-0.5 z m -7,-5 c 0,-0.275 0.225,-0.5 0.5,-0.5 0.275,0 0.5,0.225 0.5,0.5 0,0.275 -0.225,0.5 -0.5,0.5 -0.275,0 -0.5,-0.225 -0.5,-0.5 z m 104,0 c 0,-0.275 0.225,-0.5 0.5,-0.5 0.275,0 0.5,0.225 0.5,0.5 0,0.275 -0.225,0.5 -0.5,0.5 -0.275,0 -0.5,-0.225 -0.5,-0.5 z m -173,-1 c 0,-0.275 0.225,-0.5 0.5,-0.5 0.275,0 0.5,0.225 0.5,0.5 0,0.275 -0.225,0.5 -0.5,0.5 -0.275,0 -0.5,-0.225 -0.5,-0.5 z m 171,-2 c 0,-0.275 0.225,-0.5 0.5,-0.5 0.275,0 0.5,0.225 0.5,0.5 0,0.275 -0.225,0.5 -0.5,0.5 -0.275,0 -0.5,-0.225 -0.5,-0.5 z m -43,-1 c 0,-0.275 0.225,-0.5 0.5,-0.5 0.275,0 0.5,0.225 0.5,0.5 0,0.275 -0.225,0.5 -0.5,0.5 -0.275,0 -0.5,-0.225 -0.5,-0.5 z m -66,-1 c 0,-0.275 0.225,-0.5 0.5,-0.5 0.275,0 0.5,0.225 0.5,0.5 0,0.275 -0.225,0.5 -0.5,0.5 -0.275,0 -0.5,-0.225 -0.5,-0.5 z m -61,-4 c 0,-0.275 0.225,-0.5 0.5,-0.5 0.275,0 0.5,0.225 0.5,0.5 0,0.275 -0.225,0.5 -0.5,0.5 -0.275,0 -0.5,-0.225 -0.5,-0.5 z m 51,-3 c 0,-0.275 0.225,-0.5 0.5,-0.5 0.275,0 0.5,0.225 0.5,0.5 0,0.275 -0.225,0.5 -0.5,0.5 -0.275,0 -0.5,-0.225 -0.5,-0.5 z m 78,0 c 0,-0.275 0.225,-0.5 0.5,-0.5 0.275,0 0.5,0.225 0.5,0.5 0,0.275 -0.225,0.5 -0.5,0.5 -0.275,0 -0.5,-0.225 -0.5,-0.5 z m -85,-5 c 0,-0.275 0.225,-0.5 0.5,-0.5 0.275,0 0.5,0.225 0.5,0.5 0,0.275 -0.225,0.5 -0.5,0.5 -0.275,0 -0.5,-0.225 -0.5,-0.5 z m -42,-5 c 0,-0.275 0.225,-0.5 0.5,-0.5 0.275,0 0.5,0.225 0.5,0.5 0,0.275 -0.225,0.5 -0.5,0.5 -0.275,0 -0.5,-0.225 -0.5,-0.5 z m 35,0 c 0,-0.275 0.225,-0.5 0.5,-0.5 0.275,0 0.5,0.225 0.5,0.5 0,0.275 -0.225,0.5 -0.5,0.5 -0.275,0 -0.5,-0.225 -0.5,-0.5 z m 95,0 c 0,-0.275 0.225,-0.5 0.5,-0.5 0.275,0 0.5,0.225 0.5,0.5 0,0.275 -0.225,0.5 -0.5,0.5 -0.275,0 -0.5,-0.225 -0.5,-0.5 z m -99,-3 c 0,-0.275 0.225,-0.5 0.5,-0.5 0.275,0 0.5,0.225 0.5,0.5 0,0.275 -0.225,0.5 -0.5,0.5 -0.275,0 -0.5,-0.225 -0.5,-0.5 z m -30,-2 c 0,-0.275 0.225,-0.5 0.5,-0.5 0.275,0 0.5,0.225 0.5,0.5 0,0.275 -0.225,0.5 -0.5,0.5 -0.275,0 -0.5,-0.225 -0.5,-0.5 z m 26,-1 c 0,-0.275 0.225,-0.5 0.5,-0.5 0.275,0 0.5,0.225 0.5,0.5 0,0.275 -0.225,0.5 -0.5,0.5 -0.275,0 -0.5,-0.225 -0.5,-0.5 z m 107,-6 c 0,-0.275 0.225,-0.5 0.5,-0.5 0.275,0 0.5,0.225 0.5,0.5 0,0.275 -0.225,0.5 -0.5,0.5 -0.275,0 -0.5,-0.225 -0.5,-0.5 z m 5,0 c 0,-0.275 0.225,-0.5 0.5,-0.5 0.275,0 0.5,0.225 0.5,0.5 0,0.275 -0.225,0.5 -0.5,0.5 -0.275,0 -0.5,-0.225 -0.5,-0.5 z m -123,-2 c 0,-0.275 0.225,-0.5 0.5,-0.5 0.275,0 0.5,0.225 0.5,0.5 0,0.275 -0.225,0.5 -0.5,0.5 -0.275,0 -0.5,-0.225 -0.5,-0.5 z m 119,-1 c 0,-0.275 0.225,-0.5 0.5,-0.5 0.275,0 0.5,0.225 0.5,0.5 0,0.275 -0.225,0.5 -0.5,0.5 -0.275,0 -0.5,-0.225 -0.5,-0.5 z m -131,-2 c 0,-0.275 0.225,-0.5 0.5,-0.5 0.275,0 0.5,0.225 0.5,0.5 0,0.275 -0.225,0.5 -0.5,0.5 -0.275,0 -0.5,-0.225 -0.5,-0.5 z"
         id="path26835" />
      <path
         style="fill:#1b1d1d"
         d="M 356.36394,773.16956 C 352.97917,755.94281 345.27336,742.14905 331.28325,728.27395 320.24444,717.3259 312.955,712.38502 290.7937,700.82961 246.72363,677.85047 216.47588,651.78996 196.29693,619.41416 186.7455,604.08952 179.40954,583.1702 178.10268,567.53118 l -0.64702,-7.74278 -8.87527,12.04039 c -4.8814,6.62222 -9.23687,11.81692 -9.67883,11.54377 -1.10988,-0.68594 -5.68517,-12.7386 -7.81941,-20.59861 -1.37579,-5.06679 -1.75326,-10.24837 -1.71193,-23.5 0.0467,-14.96813 0.35865,-18.14427 2.6101,-26.57377 3.02322,-11.31901 7.54652,-22.52589 12.23323,-30.30894 1.98814,-3.30164 2.87307,-5.61729 2.14667,-5.61729 -0.67974,0 -6.96168,2.82945 -13.95987,6.28767 l -12.72398,6.28766 0.62695,-3.03766 c 2.25614,-10.93134 14.85228,-36.12891 26.23895,-52.48893 7.0705,-10.15869 20.87314,-26.55107 28.94341,-34.37398 l 4.97782,-4.82525 -4.15049,-6.18947 c -11.54197,-17.21209 -15.40574,-48.50589 -10.60515,-85.89408 3.59851,-28.02605 7.72724,-43.30762 10.49208,-38.83403 0.86199,1.39474 24.31685,18.74198 48.04207,35.53198 22.94971,16.24119 40.25532,29.18509 45.11454,33.74387 2.11181,1.98124 5.49228,3.53946 10.5,4.83996 4.062,1.05489 7.65532,1.9257 7.98514,1.93513 0.32982,0.009 0.89969,-4.56084 1.26637,-10.15613 0.60633,-9.25208 3.37467,-25.76048 5.58866,-33.32674 4.28174,-14.63273 8.42879,-26.5 9.2605,-26.5 2.15262,0 27.72831,26.82924 32.74383,34.34871 7.06896,10.59808 17.26798,31.8083 21.22837,44.14726 l 3.24242,10.10202 9.00049,4.95101 c 17.06291,9.386 32.4475,21.55058 40.18487,31.77415 8.97183,11.85468 12.18843,22.02525 10.03005,31.71405 l -0.78798,3.5372 15.82137,9.76892 c 8.70175,5.3729 25.83249,14.80616 38.06831,20.9628 l 22.24694,11.19388 -0.018,3.5 c -0.0277,5.38417 -4.24636,16.13372 -9.33635,23.79016 -5.30329,7.9773 -16.47365,18.94363 -25.13273,24.67369 -15.01055,9.93306 -24.82496,11.31003 -49.95571,7.00879 -23.47795,-4.01835 -35.96132,-2.70455 -44.98621,4.73452 -4.44042,3.66017 -7.51158,9.74213 -7.54289,14.93751 -0.0659,10.94304 6.39637,22.14331 24.4381,42.35533 19.72979,22.10315 31.28805,40.92958 35.55314,57.90997 2.73897,10.90454 2.70222,26.4757 -0.0877,37.1517 -5.44902,20.85151 -20.77862,44.24125 -41.11818,62.73771 -13.56568,12.33639 -36.9519,30.70062 -39.09619,30.70062 -0.21923,0 -1.15937,-3.87197 -2.08921,-8.60439 z m 18.87772,-49.89561 c 4.39812,-8.76407 5.90133,-16.72844 4.99098,-26.4433 -0.62187,-6.63626 -4.01738,-21.57608 -5.97896,-26.3067 -2.70458,-6.52246 7.90131,6.60022 15.77065,19.51303 3.919,6.43071 7.38594,16.12127 8.4028,23.48697 0.3227,2.3375 0.86306,4.24938 1.2008,4.24861 1.4371,-0.003 5.28033,-11.87694 6.18843,-19.11916 2.20641,-17.59648 -2.85958,-35.94461 -14.31269,-51.83802 -2.19629,-3.04778 -11.96071,-13.41643 -21.69871,-23.04143 -9.73799,-9.625 -19.22742,-19.73912 -21.08762,-22.47583 -4.13546,-6.08408 -7.9196,-15.04672 -7.9516,-18.83318 -0.0136,-1.61335 -0.44939,-2.54595 -1.02373,-2.19099 -0.55,0.33992 -1,4.31303 -1,8.82912 0,9.43555 2.58462,20.08057 7.06079,29.08061 1.61657,3.25034 2.93921,6.01414 2.93921,6.14177 0,0.44268 -27.99479,-16.47331 -34.23122,-20.68438 -9.58096,-6.46942 -17.15489,-14.74019 -21.14617,-23.09169 -3.73241,-7.80984 -6.62261,-17.6775 -6.62261,-22.61075 0,-1.67565 -0.45,-3.32476 -1,-3.66468 -1.57841,-0.9755 -1.20194,16.80224 0.57176,27 0.86096,4.95 2.95483,13.20318 4.65306,18.34039 3.79634,11.48407 7.89324,16.32238 24.69803,29.16761 12.40162,9.47954 23.02396,19.60518 19.57715,18.6617 -1.1,-0.30109 -6.05,-1.27524 -11,-2.16476 -15.84567,-2.8475 -34.56207,-9.53617 -39.703,-14.18865 -0.98835,-0.89444 -1.797,-1.16167 -1.797,-0.59384 0,1.20293 11.03339,11.16384 22.5,20.31294 22.92674,18.29302 40.27531,35.63852 46.7529,46.74464 3.73393,6.40198 10.11945,23.10063 12.24984,32.03429 l 1.74422,7.31432 2.86992,-3.31432 c 1.57846,-1.82287 4.4507,-6.46432 6.38277,-10.31432 z M 315.74201,695.3222 c 0,-0.24846 -3.61682,-4.63596 -8.03738,-9.75 -8.94023,-10.34274 -27.96438,-28.62154 -43.96262,-42.24023 -18.93908,-16.12212 -31.27677,-30.14746 -36.08834,-41.02482 -3.18498,-7.20018 -3.41938,-4.64303 -0.426,4.64752 11.03439,34.24754 29.02286,53.54249 75.79148,81.2961 5.37742,3.19109 10.01648,6.18926 10.30901,6.66259 0.55046,0.89065 2.41385,1.20626 2.41385,0.40884 z M 257.31075,559.3663 c 2.98619,-17.40858 9.32395,-29.62475 22.27419,-42.93394 9.6727,-9.94082 24.57413,-19.59992 36.65707,-23.7611 3.96402,-1.36515 3.89656,-1.38388 -7.5,-2.08246 -6.325,-0.3877 -16.675,-1.32326 -23,-2.07901 l -11.5,-1.3741 4,-1.78909 c 29.52449,-13.20554 52.66783,-14.30139 94.40999,-4.47037 11.60022,2.73206 62.30508,18.01599 61.71758,18.60348 -0.14678,0.14679 -3.63125,-0.37682 -7.74325,-1.16357 -12.48033,-2.38789 -37.52006,-4.66749 -53.38432,-4.86008 -14.34835,-0.17419 -15.4996,-0.0361 -26.5,3.17924 -6.325,1.84873 -12.10793,3.69205 -12.85096,4.09625 -0.74303,0.4042 8.48197,1.00906 20.5,1.34413 16.75114,0.46703 23.71809,1.06873 29.85096,2.57808 13.51247,3.32554 37.35849,8.12355 50.5,10.16101 21.99486,3.41008 30.50968,2.50807 41.66692,-4.41395 9.84987,-6.11093 9.72742,-5.96362 7.89808,-9.50117 -2.06546,-3.99417 -5.54908,-18.61506 -5.55799,-23.32719 l -0.007,-3.70149 10.5,0.27002 c 5.775,0.14851 10.5,-0.008 10.5,-0.34762 0,-0.3397 -1.6875,-1.21496 -3.75,-1.94502 -4.92526,-1.7434 -25.8815,-12.20828 -34.75,-17.35306 -11.40643,-6.61709 -29.76956,-19.18399 -36.0036,-24.63925 -3.19417,-2.79515 -6.18756,-5.08209 -6.65199,-5.08209 -0.46443,0 -0.84441,-0.41271 -0.84441,-0.91713 0,-0.50443 2.31655,-1.41395 5.14788,-2.02116 4.43339,-0.95079 5.40579,-0.87061 7.00613,0.57767 2.66106,2.40823 3.11794,1.25574 1.26255,-3.18482 -7.25789,-17.37059 -28.31993,-36.67546 -52.85251,-48.44312 -21.54891,-10.33647 -39.40723,-15.17523 -55.84173,-15.13046 -6.03157,0.0164 -11.15924,0.22261 -11.3948,0.45817 -0.23556,0.23556 2.4348,4.41812 5.93414,9.29458 7.21657,10.05655 8.06278,11.36627 7.34376,11.36627 -0.28194,0 -9.08168,-6.97983 -19.55497,-15.51075 -27.01681,-22.00626 -37.41106,-29.67029 -64.05045,-47.22655 -12.925,-8.51801 -26.82588,-17.69838 -30.89084,-20.40082 -4.06497,-2.70244 -7.53869,-4.76568 -7.71938,-4.58499 -0.60184,0.60184 -3.2547,20.05803 -4.4618,32.72311 -3.13503,32.89312 3.53086,60.99318 17.49666,73.75713 5.44446,4.97594 17.98954,11.24287 22.50584,11.24287 1.13824,0 2.06952,0.45 2.06952,1 0,0.55 -0.4628,1 -1.02845,1 -2.25161,0 -16.19939,7.29334 -25.00336,13.07433 -10.20728,6.70246 -16.94344,12.75804 -29.33005,26.36674 -7.94115,8.72464 -8.2802,9.51593 -2.13814,4.99004 10.81638,-7.97026 25.71573,-12.38747 44,-13.04469 l 13,-0.46727 -5.72509,2.46118 c -14.4499,6.21192 -32.74889,21.32394 -41.58354,34.34132 -5.53173,8.15069 -11.65109,20.6704 -14.09034,28.82768 -1.75298,5.86226 -4.57966,27.30538 -3.71363,28.17141 0.15132,0.15132 1.94079,-2.98645 3.9766,-6.97281 6.23118,-12.20137 16.51587,-25.62386 30.136,-39.33032 14.2774,-14.36788 26.53292,-23.28246 41.92309,-30.49453 10.23507,-4.79632 25.65916,-10.19841 26.49886,-9.28089 0.31793,0.34739 -0.006,0.83955 -0.71882,1.09367 -3.56853,1.27141 -17.72639,13.02133 -25.73756,21.36018 -9.98007,10.38828 -16.52907,19.10401 -22.45403,29.88298 -7.01469,12.76143 -9.13779,19.31851 -9.68544,29.91306 l -0.49664,9.60792 3.67907,-6.9938 c 4.9729,-9.45333 9.29891,-15.1613 16.82966,-22.20595 5.2564,-4.91711 16.15745,-12.30025 18.16106,-12.30025 0.29125,0 -0.76834,2.5875 -2.35464,5.75 -7.87585,15.70154 -10.43174,29.80032 -8.22492,45.37032 1.23757,8.7316 5.01332,24.20549 7.16888,29.37968 1.22931,2.95086 1.26373,2.89352 2.10099,-3.5 0.46816,-3.575 1.53879,-10.50844 2.37918,-15.40765 z M 417.74201,445.93593 c -3.575,-1.53116 -11.44133,-5.99015 -17.48073,-9.90889 -6.0394,-3.91873 -11.18727,-6.91842 -11.43971,-6.66598 -0.25244,0.25244 1.65139,2.60157 4.23073,5.22029 4.30476,4.37047 6.05394,8.1926 3.74931,8.1926 -4.2502,0 -22.41794,-8.55797 -35.10066,-16.53427 -1.94758,-1.22486 -7.60926,-4.29725 -12.5815,-6.82754 -7.63278,-3.88419 -10.54592,-4.79068 -18.70895,-5.82169 -5.31767,-0.67163 -9.66849,-1.48473 -9.66849,-1.80687 0,-1.56368 17.82107,-4.28573 31,-4.73505 13.24437,-0.45155 15.46148,-0.26384 25.60315,2.16765 10.70505,2.56657 11.40343,2.90217 19.47785,9.35989 10.61289,8.48795 19.51907,16.81035 26.01997,24.31443 5.94675,6.86442 5.0566,7.39586 -5.10097,3.04543 z M 262.79606,400.65184 c -28.57021,-3.30998 -40.84723,-13.99441 -46.04632,-40.07312 -3.33717,-16.73931 -3.07997,-30.35003 0.78859,-41.73116 l 1.73775,-5.11236 7.48296,10.70701 c 9.09517,13.01381 18.49428,24.91188 35.78021,45.29316 7.2123,8.50378 12.91116,15.66352 12.66414,15.91053 -0.24701,0.24702 -1.23938,-0.22782 -2.20525,-1.05519 -4.8035,-4.11473 -35.25613,-19.663 -35.25613,-18.00081 0,1.71621 20.48226,23.21814 26.84751,28.18405 6.37489,4.97345 8.47697,7.22911 6.40249,6.87027 -0.4125,-0.0714 -4.10068,-0.51793 -8.19595,-0.99238 z m 386.44595,265.22625 c -7.61542,-3.52582 -12.5,-11.45332 -12.5,-20.28704 0,-14.64961 8.76806,-23.74678 22.93428,-23.79513 8.56443,-0.0292 14.21851,2.67623 17.57985,8.41194 1.36723,2.333 2.48587,4.53977 2.48587,4.90395 0,0.36418 -2.17156,0.66214 -4.82569,0.66214 -3.80337,0 -5.30425,-0.5094 -7.08468,-2.40459 -4.18882,-4.45879 -11.6849,-4.1831 -16.81061,0.61826 -5.5242,5.17463 -5.41951,15.84585 0.2107,21.47606 2.96522,2.96522 3.89875,3.31027 8.95573,3.31027 4.66061,0 6.07365,-0.42819 8.1,-2.45454 4.18087,-4.18087 3.30843,-5.54546 -3.54545,-5.54546 h -6 v -4 -4 h 11 11 l -0.0439,4.75 c -0.12228,13.23298 -7.31302,20.27123 -20.66627,20.22804 -4.46232,-0.0144 -8.16102,-0.6568 -10.78984,-1.8739 z m 48.49938,-20.85414 6.2e-4,-22.25 h 5 5 v 21.90349 21.90349 l -5.00062,0.34651 -5.00062,0.34651 z m -149.99938,-0.25 v -22 l 12.25,0.022 c 13.58676,0.0244 17.9585,1.28212 22.94695,6.60194 10.16657,10.84189 6.68553,29.28435 -6.69695,35.48023 -3.19467,1.47908 -6.46633,1.85636 -16.25,1.8739 l -12.25,0.022 z m 25.47625,11.42361 c 7.43222,-4.86978 7.14607,-18.98195 -0.4647,-22.91763 -1.7303,-0.89478 -5.70325,-1.71216 -8.82878,-1.81642 l -5.68277,-0.18956 -0.27913,13.88925 -0.27912,13.88925 6.36894,-0.51124 c 3.72006,-0.29861 7.53207,-1.27335 9.16556,-2.34365 z m 34.52375,-11.42361 v -22 h 5 5 v 22 22 h -5 -5 z m 132.77307,4.32339 -0.27307,-17.67661 -6.75,0.24553 -6.75,0.24553 v -4.56892 -4.56892 h 19.0575 19.0575 l -0.3075,4.25 -0.3075,4.25 -6.75,0.29569 -6.75,0.29569 v 17.45431 17.45431 h -4.97693 -4.97692 z m 34.93422,13.42661 c 0.93011,-2.3375 4.91342,-12.30178 8.85181,-22.14285 l 7.1607,-17.89286 h 4.85872 4.85872 l 8.26106,20.39286 c 4.54359,11.21607 8.52553,21.18035 8.84877,22.14285 0.51118,1.52213 -0.11035,1.75 -4.77303,1.75 h -5.36073 l -1.54691,-4.25 -1.5469,-4.25 -8.67848,-0.2892 -8.67848,-0.28921 -1.94573,4.53921 c -1.93993,4.52567 -1.96073,4.5392 -6.97318,4.5392 h -5.02744 z m 25.30283,-13.5 c 0.0204,-1.513 -4.39912,-13.25 -4.98926,-13.25 -0.3351,0 -1.34216,2.3625 -2.23792,5.25 -0.89575,2.8875 -1.9365,6.0375 -2.31278,7 -0.59717,1.52753 -0.0349,1.75 4.42285,1.75 2.80884,0 5.11154,-0.3375 5.11711,-0.75 z m 35.98988,-4.75 v -22.5 h 5 5 v 18 18 h 11 11 v 4.5 4.5 h -16 -16 z m -289.80505,-63 c 0.0204,-1.65 0.2445,-2.20393 0.49804,-1.23096 0.25354,0.97296 0.23687,2.32296 -0.037,3 -0.27393,0.67703 -0.48137,-0.11904 -0.46099,-1.76904 z m 215.84101,1.75 c 0.0198,-0.4125 1.1695,-2.1 2.55494,-3.75 l 2.51898,-3 -1.80494,3.7254 c -1.62719,3.35851 -3.36195,4.9636 -3.26898,3.0246 z m 2.96404,0.25 c 0,-0.275 0.225,-0.5 0.5,-0.5 0.275,0 0.5,0.225 0.5,0.5 0,0.275 -0.225,0.5 -0.5,0.5 -0.275,0 -0.5,-0.225 -0.5,-0.5 z m 65.66062,-18.25 c -11.88739,-18.15489 -15.6814,-24.30194 -11.95693,-19.37255 3.54535,4.69232 25.24424,38.12255 24.74458,38.12255 -0.28084,0 -6.03528,-8.4375 -12.78765,-18.75 z m 14.67271,18.08334 c 0.36667,-0.36667 0.96667,-0.36667 1.33334,0 0.36666,0.36666 0.0667,0.66666 -0.66667,0.66666 -0.73333,0 -1.03333,-0.3 -0.66667,-0.66666 z m -168.33333,-0.83334 c 0,-0.275 0.225,-0.5 0.5,-0.5 0.275,0 0.5,0.225 0.5,0.5 0,0.275 -0.225,0.5 -0.5,0.5 -0.275,0 -0.5,-0.225 -0.5,-0.5 z m -3,-1 c 0,-0.275 0.225,-0.5 0.5,-0.5 0.275,0 0.5,0.225 0.5,0.5 0,0.275 -0.225,0.5 -0.5,0.5 -0.275,0 -0.5,-0.225 -0.5,-0.5 z m -2,-1 c 0,-0.275 0.225,-0.5 0.5,-0.5 0.275,0 0.5,0.225 0.5,0.5 0,0.275 -0.225,0.5 -0.5,0.5 -0.275,0 -0.5,-0.225 -0.5,-0.5 z m -4,-2 c 0,-0.275 0.225,-0.5 0.5,-0.5 0.275,0 0.5,0.225 0.5,0.5 0,0.275 -0.225,0.5 -0.5,0.5 -0.275,0 -0.5,-0.225 -0.5,-0.5 z m -2,-1 c 0,-0.275 0.225,-0.5 0.5,-0.5 0.275,0 0.5,0.225 0.5,0.5 0,0.275 -0.225,0.5 -0.5,0.5 -0.275,0 -0.5,-0.225 -0.5,-0.5 z m -7,-4.82255 c -6.46908,-5.08269 -9.79789,-9.23527 -13.85788,-17.28724 -2.98254,-5.91513 -5.65265,-14.21301 -4.83621,-15.02945 0.24055,-0.24055 0.97983,1.71737 1.64285,4.35094 2.6236,10.42126 9.31738,20.43949 19.05506,28.51873 6.19895,5.1432 4.73021,4.73788 -2.00382,-0.55298 z m 108.5,2.32255 c 0.33992,-0.55 0.84303,-1 1.11803,-1 0.275,0 0.22189,0.45 -0.11803,1 -0.33992,0.55 -0.84303,1 -1.11803,1 -0.275,0 -0.22189,-0.45 0.11803,-1 z m 2,-3 c 0.33992,-0.55 0.84303,-1 1.11803,-1 0.275,0 0.22189,0.45 -0.11803,1 -0.33992,0.55 -0.84303,1 -1.11803,1 -0.275,0 -0.22189,-0.45 0.11803,-1 z m 2.03638,-3 c 1.63984,-2.96434 20.74064,-31.52203 21.7376,-32.5 1.59955,-1.56907 0.17994,0.71604 -10.56119,17 -8.66494,13.13639 -13.83635,20.30835 -11.17641,15.5 z m -48.83713,-14 c 5.07996,-5.44379 9.01677,-13.7276 10.28316,-21.63782 l 0.93851,-5.86218 -0.38337,5.70319 c -0.52857,7.86299 -4.63099,16.53689 -10.36462,21.91424 l -4.67293,4.38257 z m -83.42689,-20 c 0,-2.475 0.19502,-3.4875 0.43337,-2.25 0.23836,1.2375 0.23836,3.2625 0,4.5 -0.23835,1.2375 -0.43337,0.225 -0.43337,-2.25 z m 155.3388,-1.25 c 0.40106,-0.6875 2.02595,-3.16499 3.61086,-5.50553 l 2.88167,-4.25553 -18.50846,-27.49447 c -10.17966,-15.12196 -18.19049,-27.48082 -17.80185,-27.46413 0.38864,0.0167 8.96798,12.32501 19.0652,27.35184 l 18.35859,27.32151 -3.75017,5.64816 c -2.06259,3.10648 -3.93801,5.64815 -4.1676,5.64815 -0.22959,0 -0.0893,-0.5625 0.31176,-1.25 z m -61.87213,-13.69138 c -0.65595,-7.23394 -4.2148,-15.31387 -9.32825,-21.17863 l -3.81888,-4.37999 4.12308,3.87389 c 5.10435,4.79584 9.32134,13.9351 10.02855,21.73433 0.29384,3.24048 0.30925,5.89178 0.0342,5.89178 -0.275,0 -0.74244,-2.67362 -1.03875,-5.94138 z m -93.50703,-2.05862 c 0,-1.925 0.2058,-2.7125 0.45733,-1.75 0.25152,0.9625 0.25152,2.5375 0,3.5 -0.25153,0.9625 -0.45733,0.175 -0.45733,-1.75 z m 0.92589,-6 c 0,-1.375 0.22698,-1.9375 0.50439,-1.25 0.27741,0.6875 0.27741,1.8125 0,2.5 -0.27741,0.6875 -0.50439,0.125 -0.50439,-1.25 z m 0.92771,-4 c -0.0302,-0.825 0.38124,-2.175 0.9144,-3 1.18132,-1.82796 1.18132,-0.24908 0,2.5 -0.56668,1.31874 -0.87816,1.48906 -0.9144,0.5 z m 175.92451,-4.24207 c -0.012,-0.88083 20.70719,-32.80778 22.23189,-34.25793 1.56103,-1.4847 0.55661,0.13952 -11.44042,18.5 -5.92975,9.075 -10.78591,16.16607 -10.79147,15.75793 z m -173.9874,-1.11795 c -0.0563,-2.13067 6.5065,-12.77301 10.62327,-17.22694 l 4.54113,-4.91304 -4.22992,5.30166 c -2.32646,2.91591 -5.73334,8.09091 -7.57084,11.5 -1.83751,3.40909 -3.35115,5.81133 -3.36364,5.33832 z m 17.47729,-23.63998 c 0.33992,-0.55 0.84303,-1 1.11803,-1 0.275,0 0.22189,0.45 -0.11803,1 -0.33992,0.55 -0.84303,1 -1.11803,1 -0.275,0 -0.22189,-0.45 0.11803,-1 z m -48,-42 c -0.85325,-1.65 -1.32636,-3 -1.05136,-3 0.275,0 1.19811,1.35 2.05136,3 0.85325,1.65 1.32636,3 1.05136,3 -0.275,0 -1.19811,-1.35 -2.05136,-3 z m -65.5,1 c 0,-0.73333 0.3,-1.03333 0.66667,-0.66666 0.36666,0.36666 0.36666,0.96666 0,1.33333 -0.36667,0.36667 -0.66667,0.0667 -0.66667,-0.66667 z m 114.4686,-57 c 0,-32.175 0.12636,-45.3375 0.2808,-29.25 0.15445,16.0875 0.15445,42.4125 0,58.5 -0.15444,16.0875 -0.2808,2.925 -0.2808,-29.25 z m 102.75997,-0.25 c 0.12572,-32.0375 0.34969,-49.025 0.49771,-37.75 0.69383,52.84807 0.70449,96.00074 0.0237,96.00039 -0.4125,-2.1e-4 -0.64714,-26.21289 -0.52143,-58.25039 z m -217.22857,54.25 c 0,-0.73333 0.3,-1.03333 0.66667,-0.66666 0.36666,0.36666 0.36666,0.96666 0,1.33333 -0.36667,0.36667 -0.66667,0.0667 -0.66667,-0.66667 z m 63,-2.5 c 0,-0.275 0.225,-0.5 0.5,-0.5 0.275,0 0.5,0.225 0.5,0.5 0,0.275 -0.225,0.5 -0.5,0.5 -0.275,0 -0.5,-0.225 -0.5,-0.5 z m -63,-2 c 0,-0.275 0.225,-0.5 0.5,-0.5 0.275,0 0.5,0.225 0.5,0.5 0,0.275 -0.225,0.5 -0.5,0.5 -0.275,0 -0.5,-0.225 -0.5,-0.5 z m 55.90563,-10.75 c -3.44797,-6.1875 -7.13171,-12.7125 -8.1861,-14.5 -1.0544,-1.7875 -1.69892,-3.25 -1.43227,-3.25 0.26664,0 2.26549,3.0375 4.44187,6.75 6.20353,10.58204 12.45873,22.25 11.92824,22.25 -0.2655,0 -3.30378,-5.0625 -6.75174,-11.25 z m -55.90563,-2.25 c 0,-0.275 0.225,-0.5 0.5,-0.5 0.275,0 0.5,0.225 0.5,0.5 0,0.275 -0.225,0.5 -0.5,0.5 -0.275,0 -0.5,-0.225 -0.5,-0.5 z m 284.5,-8.5 c 0.33992,-0.55 0.84303,-1 1.11803,-1 0.275,0 0.22189,0.45 -0.11803,1 -0.33992,0.55 -0.84303,1 -1.11803,1 -0.275,0 -0.22189,-0.45 0.11803,-1 z m 6.49691,-6.75 c 1.30856,-1.7875 2.53541,-3.25 2.72633,-3.25 0.75941,0 -1.72001,3.75055 -3.35979,5.08225 -1.08027,0.87731 -0.83879,0.17886 0.63346,-1.83225 z m 3.00309,-4.75 c 0,-0.275 0.225,-0.5 0.5,-0.5 0.275,0 0.5,0.225 0.5,0.5 0,0.275 -0.225,0.5 -0.5,0.5 -0.275,0 -0.5,-0.225 -0.5,-0.5 z m 1,-2 c 0,-0.275 0.225,-0.5 0.5,-0.5 0.275,0 0.5,0.225 0.5,0.5 0,0.275 -0.225,0.5 -0.5,0.5 -0.275,0 -0.5,-0.225 -0.5,-0.5 z m 1,-2.5 c 0,-0.73333 0.3,-1.03333 0.66667,-0.66666 0.36666,0.36666 0.36666,0.96666 0,1.33333 -0.36667,0.36667 -0.66667,0.0667 -0.66667,-0.66667 z m 1.07895,-4.58333 c 0.048,-1.16494 0.28494,-1.4019 0.60416,-0.60417 0.28887,0.72188 0.25335,1.58438 -0.0789,1.91667 -0.3323,0.33229 -0.56864,-0.25833 -0.52522,-1.3125 z m 1.19341,-7.41667 c 0,-2.475 0.19502,-3.4875 0.43337,-2.25 0.23836,1.2375 0.23836,3.2625 0,4.5 -0.23835,1.2375 -0.43337,0.225 -0.43337,-2.25 z m -236.27236,-5.5 c 0,-0.275 0.225,-0.5 0.5,-0.5 0.275,0 0.5,0.225 0.5,0.5 0,0.275 -0.225,0.5 -0.5,0.5 -0.275,0 -0.5,-0.225 -0.5,-0.5 z m 235.15789,-3.5 c 0,-1.375 0.22698,-1.9375 0.50439,-1.25 0.27741,0.6875 0.27741,1.8125 0,2.5 -0.27741,0.6875 -0.50439,0.125 -0.50439,-1.25 z m -232.15789,0.5 c 0,-0.275 0.225,-0.5 0.5,-0.5 0.275,0 0.5,0.225 0.5,0.5 0,0.275 -0.225,0.5 -0.5,0.5 -0.275,0 -0.5,-0.225 -0.5,-0.5 z m -64.84211,-2.5 c 0,-1.375 0.22698,-1.9375 0.50439,-1.25 0.27741,0.6875 0.27741,1.8125 0,2.5 -0.27741,0.6875 -0.50439,0.125 -0.50439,-1.25 z m 294.57847,-4.98924 c -0.86651,-2.20592 -1.36371,-4.01076 -1.10489,-4.01076 0.67641,0 3.56457,7.1373 3.08302,7.61884 -0.22146,0.22147 -1.11162,-1.40217 -1.97813,-3.60808 z m -294.73636,1.48924 c 0,-0.275 0.225,-0.5 0.5,-0.5 0.275,0 0.5,0.225 0.5,0.5 0,0.275 -0.225,0.5 -0.5,0.5 -0.275,0 -0.5,-0.225 -0.5,-0.5 z m 0,-2 c 0,-0.275 0.225,-0.5 0.5,-0.5 0.275,0 0.5,0.225 0.5,0.5 0,0.275 -0.225,0.5 -0.5,0.5 -0.275,0 -0.5,-0.225 -0.5,-0.5 z m 290.87244,-6.25 c -1.24387,-1.58605 -1.2085,-1.62142 0.37756,-0.37755 0.9625,0.75484 1.75,1.54234 1.75,1.75 0,0.82303 -0.82119,0.2933 -2.12756,-1.37245 z m -290.87244,-3.25 c 0,-0.73333 0.3,-1.03333 0.66667,-0.66666 0.36666,0.36666 0.36666,0.96666 0,1.33333 -0.36667,0.36667 -0.66667,0.0667 -0.66667,-0.66667 z m 67,-0.5 c 0,-0.275 0.225,-0.5 0.5,-0.5 0.275,0 0.5,0.225 0.5,0.5 0,0.275 -0.225,0.5 -0.5,0.5 -0.275,0 -0.5,-0.225 -0.5,-0.5 z m 219,-1 c 0,-0.275 0.225,-0.5 0.5,-0.5 0.275,0 0.5,0.225 0.5,0.5 0,0.275 -0.225,0.5 -0.5,0.5 -0.275,0 -0.5,-0.225 -0.5,-0.5 z m -220.59549,-1.6545 c -0.44208,-0.7153 -0.27432,-0.88307 0.44098,-0.44099 0.63498,0.39244 1.15451,0.91197 1.15451,1.15451 0,0.83414 -0.88305,0.43923 -1.59549,-0.71352 z m -65.24662,-6.8455 c 0,-1.375 0.22698,-1.9375 0.50439,-1.25 0.27741,0.6875 0.27741,1.8125 0,2.5 -0.27741,0.6875 -0.50439,0.125 -0.50439,-1.25 z m -0.15789,-3.5 c 0,-0.275 0.225,-0.5 0.5,-0.5 0.275,0 0.5,0.225 0.5,0.5 0,0.275 -0.225,0.5 -0.5,0.5 -0.275,0 -0.5,-0.225 -0.5,-0.5 z m 0,-2.5 c 0,-0.73333 0.3,-1.03333 0.66667,-0.66666 0.36666,0.36666 0.36666,0.96666 0,1.33333 -0.36667,0.36667 -0.66667,0.0667 -0.66667,-0.66667 z m 0,-3 c 0,-0.73333 0.3,-1.03333 0.66667,-0.66666 0.36666,0.36666 0.36666,0.96666 0,1.33333 -0.36667,0.36667 -0.66667,0.0667 -0.66667,-0.66667 z m 0.28601,-8.5 c 0.008,-2.75 0.20172,-3.75631 0.43157,-2.23625 0.22986,1.52007 0.22371,3.77007 -0.0137,5 -0.23736,1.22994 -0.42542,-0.0137 -0.41792,-2.76375 z"
         id="path26834" />
    </g>
    <g
       id="g26831"
       transform="translate(435.2629,21.385749)" />
  </g>
</svg>
